<svg width="22" height="22" xmlns="http://www.w3.org/2000/svg">

 <g>
  <title>background</title>
  <rect fill="none" id="canvas_background" height="22" width="22" padding="0 0 0 0" y="0" x="0"/>
 </g>
 <g>
  <title>Layer 1</title>
  <g stroke="null" id="fluent:cloud-edit-16-filled">
   <path stroke="null" fill="#1560BD" d="m10.951652,0.115858c-1.524857,-0.000207 -2.997207,0.59685 -4.140014,1.678808c-1.142807,1.08197 -1.877283,2.574242 -2.06521,4.196033c-1.316513,0.092713 -2.547714,0.730731 -3.433093,1.779063c-0.885379,1.048332 -1.35547,2.424694 -1.310796,3.837935c0.044686,1.41324 0.600624,2.752286 1.550172,3.734001c0.94956,0.981715 2.218239,1.52898 3.537583,1.525934l1.914704,0c0.23758,-0.839294 0.66585,-1.604881 1.247297,-2.227925l7.547814,-8.091167c0.387631,-0.413763 0.828462,-0.737078 1.297371,-0.968252c-0.269296,-1.535876 -1.030917,-2.922606 -2.153228,-3.920414c-1.122198,-0.997797 -2.534493,-1.543953 -3.9926,-1.544014zm-1.594289,15.708168l7.549371,-8.091143c0.271569,-0.290823 0.593951,-0.521474 0.94873,-0.678782c0.354665,-0.157296 0.734908,-0.238192 1.118787,-0.238034c0.38388,0.000158 0.764008,0.081347 1.11856,0.238947c0.354665,0.157601 0.67682,0.388507 0.948162,0.679549c0.271342,0.291042 0.486528,0.636519 0.633396,1.016705c0.146754,0.38021 0.222234,0.787614 0.222121,1.199037c-0.000227,0.411424 -0.075935,0.818827 -0.22303,1.19894c-0.146982,0.379991 -0.362509,0.725382 -0.634078,1.016193l-7.549371,8.089462c-0.439808,0.471486 -0.99079,0.806156 -1.594289,0.968192l-2.341417,0.626577c-0.232817,0.062134 -0.476684,0.058723 -0.70791,-0.00999c-0.231215,-0.068713 -0.441934,-0.20029 -0.611673,-0.382062c-0.169739,-0.18165 -0.292735,-0.407403 -0.35703,-0.655208c-0.064294,-0.247683 -0.067705,-0.50901 -0.009901,-0.758642l0.586141,-2.509477c0.149914,-0.647289 0.46235,-1.238169 0.903431,-1.708559l0,-0.001706z" id="Vector"/>
  </g>
 </g>
</svg>