<svg width="26" height="26" viewBox="0 0 26 26" fill="none" xmlns="http://www.w3.org/2000/svg">
<g id="Edit">
<g id="Iconly/Bold/Edit">
<g id="Edit_2">
<path id="Vector" d="M21.6556 20.5327C22.2591 20.5327 22.75 21.03 22.75 21.6413C22.75 22.2539 22.2591 22.75 21.6556 22.75H15.4697C14.8661 22.75 14.3753 22.2539 14.3753 21.6413C14.3753 21.03 14.8661 20.5327 15.4697 20.5327H21.6556ZM17.3657 4.00732L18.9636 5.27668C19.6189 5.78909 20.0557 6.46453 20.2052 7.17491C20.3776 7.95632 20.1937 8.72376 19.6763 9.38756L10.1578 21.6969C9.72092 22.2559 9.07715 22.5703 8.3874 22.582L4.59376 22.6285C4.38684 22.6285 4.2144 22.4888 4.16841 22.2908L3.30622 18.5526C3.15678 17.8655 3.30622 17.1551 3.74307 16.6078L10.4911 7.87364C10.6061 7.73389 10.813 7.71177 10.951 7.81541L13.7905 10.0746C13.9744 10.226 14.2273 10.3076 14.4917 10.2726C15.055 10.2027 15.4344 9.69034 15.3769 9.143C15.3424 8.86351 15.2045 8.6306 15.0205 8.45591C14.963 8.40933 12.2615 6.24326 12.2615 6.24326C12.0891 6.10352 12.0546 5.84731 12.1925 5.6738L13.2617 4.28681C14.2503 3.01745 15.9747 2.90099 17.3657 4.00732Z" fill="#1560BD"/>
</g>
</g>
</g>
</svg>
