<svg width="26" height="26" viewBox="0 0 26 26" fill="none" xmlns="http://www.w3.org/2000/svg">
<g id="solar:face-scan-circle-bold">
<g id="Group">
<path id="Vector" fill-rule="evenodd" clip-rule="evenodd" d="M11.7007 2.78386C11.7412 2.98397 11.7007 3.192 11.588 3.36223C11.4752 3.53247 11.2995 3.65097 11.0994 3.6917C9.27499 4.06554 7.60046 4.96681 6.28358 6.28369C4.9667 7.60056 4.06544 9.27509 3.69159 11.0995C3.65093 11.2998 3.53239 11.4757 3.36204 11.5886C3.19168 11.7014 2.98347 11.742 2.78321 11.7013C2.58295 11.6607 2.40704 11.5421 2.29419 11.3718C2.18133 11.2014 2.14077 10.9932 2.18142 10.7929C2.61531 8.67177 3.66278 6.72479 5.19373 5.19384C6.72469 3.66289 8.67166 2.61541 10.7928 2.18153C10.892 2.1613 10.9942 2.16085 11.0935 2.18019C11.1929 2.19954 11.2874 2.2383 11.3718 2.29426C11.4561 2.35021 11.5286 2.42227 11.585 2.50628C11.6415 2.5903 11.6808 2.68463 11.7007 2.78386ZM2.78376 14.2986C2.88285 14.2784 2.98497 14.2779 3.08425 14.2972C3.18354 14.3164 3.27805 14.3551 3.36238 14.4109C3.4467 14.4668 3.51918 14.5387 3.57567 14.6226C3.63216 14.7065 3.67155 14.8007 3.69159 14.8999C4.06544 16.7243 4.9667 18.3988 6.28358 19.7157C7.60046 21.0326 9.27499 21.9338 11.0994 22.3077C11.1986 22.3278 11.2928 22.3673 11.3767 22.4238C11.4606 22.4804 11.5326 22.5529 11.5884 22.6372C11.6443 22.7216 11.6831 22.8161 11.7024 22.9154C11.7217 23.0148 11.7213 23.1169 11.7012 23.2161C11.6811 23.3152 11.6416 23.4095 11.5851 23.4934C11.5285 23.5773 11.456 23.6492 11.3717 23.7051C11.2873 23.761 11.1928 23.7997 11.0935 23.819C10.9942 23.8384 10.892 23.838 10.7928 23.8179C8.67186 23.3838 6.72512 22.3362 5.19437 20.8053C3.66362 19.2744 2.61631 17.3275 2.18251 15.2064C2.14193 15.0063 2.18247 14.7983 2.29521 14.6281C2.40796 14.4578 2.58368 14.3393 2.78376 14.2986ZM14.2985 2.78386C14.3184 2.68463 14.3577 2.5903 14.4142 2.50628C14.4706 2.42227 14.5431 2.35021 14.6274 2.29426C14.7117 2.2383 14.8063 2.19954 14.9056 2.18019C15.005 2.16085 15.1072 2.1613 15.2063 2.18153C17.3275 2.61541 19.2745 3.66289 20.8054 5.19384C22.3364 6.72479 23.3839 8.67177 23.8178 10.7929C23.8584 10.9932 23.8178 11.2014 23.705 11.3718C23.5921 11.5421 23.4162 11.6607 23.216 11.7013C23.0157 11.742 22.8075 11.7014 22.6371 11.5886C22.4668 11.4757 22.3482 11.2998 22.3076 11.0995C21.9337 9.27509 21.0325 7.60056 19.7156 6.28369C18.3987 4.96681 16.7242 4.06554 14.8998 3.6917C14.6997 3.65097 14.524 3.53247 14.4112 3.36223C14.2985 3.192 14.2579 2.98397 14.2985 2.78386ZM23.2154 14.2986C23.3146 14.3187 23.4088 14.358 23.4928 14.4145C23.5767 14.471 23.6487 14.5434 23.7047 14.6278C23.7606 14.7121 23.7994 14.8066 23.8188 14.9058C23.8382 15.0051 23.8378 15.1073 23.8178 15.2064C23.3839 17.3276 22.3364 19.2746 20.8054 20.8056C19.2745 22.3365 17.3275 23.384 15.2063 23.8179C15.0061 23.8585 14.7979 23.818 14.6275 23.7051C14.4572 23.5922 14.3386 23.4163 14.298 23.2161C14.2573 23.0158 14.2979 22.8076 14.4107 22.6372C14.5236 22.4669 14.6995 22.3484 14.8998 22.3077C16.7242 21.9338 18.3987 21.0326 19.7156 19.7157C21.0325 18.3988 21.9337 16.7243 22.3076 14.8999C22.3276 14.8007 22.367 14.7065 22.4235 14.6226C22.48 14.5387 22.5525 14.4668 22.6368 14.4109C22.7211 14.3551 22.8156 14.3164 22.9149 14.2972C23.0142 14.2779 23.1163 14.2784 23.2154 14.2986Z" fill="#1560BD"/>
<path id="Vector_2" fill-rule="evenodd" clip-rule="evenodd" d="M13.0001 21.215C15.1788 21.215 17.2683 20.3495 18.8089 18.8089C20.3495 17.2683 21.215 15.1788 21.215 13.0001C21.215 10.8213 20.3495 8.73185 18.8089 7.19125C17.2683 5.65065 15.1788 4.78516 13.0001 4.78516C10.8213 4.78516 8.73185 5.65065 7.19125 7.19125C5.65065 8.73185 4.78516 10.8213 4.78516 13.0001C4.78516 15.1788 5.65065 17.2683 7.19125 18.8089C8.73185 20.3495 10.8213 21.215 13.0001 21.215ZM9.68507 15.7507C9.7452 15.6692 9.82082 15.6004 9.9076 15.5482C9.99437 15.4961 10.0906 15.4616 10.1907 15.4467C10.2909 15.4318 10.393 15.4368 10.4912 15.4614C10.5894 15.4861 10.6818 15.5299 10.763 15.5903C11.4022 16.0637 12.1713 16.3378 13.0001 16.3378C13.8069 16.3367 14.5917 16.0744 15.2372 15.5903C15.3184 15.5301 15.4107 15.4866 15.5088 15.462C15.6068 15.4375 15.7088 15.4326 15.8088 15.4475C15.9088 15.4624 16.0049 15.4968 16.0915 15.5488C16.1782 15.6008 16.2538 15.6694 16.314 15.7507C16.3742 15.8319 16.4178 15.9242 16.4423 16.0223C16.4668 16.1203 16.4717 16.2223 16.4568 16.3223C16.442 16.4223 16.4075 16.5184 16.3555 16.605C16.3035 16.6917 16.2349 16.7673 16.1537 16.8275C15.2431 17.5084 14.137 17.8769 13.0001 17.8783C11.8628 17.8771 10.7563 17.5085 9.84541 16.8275C9.68161 16.7057 9.57284 16.5239 9.54298 16.322C9.51312 16.1201 9.56462 15.9146 9.68616 15.7507H9.68507ZM16.5935 11.2667C16.5935 12.0121 16.1927 12.6155 15.6954 12.6155C15.1992 12.6155 14.7962 12.0121 14.7962 11.2667C14.7962 10.5225 15.1992 9.91907 15.6954 9.91907C16.1916 9.91907 16.5935 10.5225 16.5935 11.2667ZM10.3047 12.6155C10.8009 12.6155 11.2039 12.0121 11.2039 11.2667C11.2039 10.5225 10.8009 9.91907 10.3047 9.91907C9.80857 9.91907 9.40557 10.5225 9.40557 11.2667C9.40557 12.0121 9.80857 12.6155 10.3047 12.6155Z" fill="#1560BD"/>
</g>
</g>
</svg>
