<svg width="38" height="38" viewBox="0 0 38 38" fill="none" xmlns="http://www.w3.org/2000/svg">
<g id="eva:arrow-ios-back-fill">
<path id="Vector" d="M30.0827 14.5073C30.0835 14.7439 30.0313 14.9776 29.9299 15.1913C29.8286 15.405 29.6806 15.5933 29.4969 15.7423L19.9969 23.3898C19.7136 23.6227 19.3582 23.75 18.9915 23.75C18.6247 23.75 18.2694 23.6227 17.986 23.3898L8.48605 15.4731C8.1627 15.2044 7.95936 14.8182 7.92076 14.3995C7.88216 13.9808 8.01146 13.564 8.28021 13.2406C8.54896 12.9173 8.93516 12.714 9.35383 12.6754C9.77251 12.6368 10.1894 12.7661 10.5127 13.0348L18.9994 20.1123L27.486 13.2723C27.7185 13.0787 28.0015 12.9557 28.3016 12.9179C28.6017 12.8801 28.9064 12.929 29.1795 13.059C29.4527 13.1889 29.6829 13.3943 29.843 13.651C30.0031 13.9077 30.0862 14.2048 30.0827 14.5073Z" fill="white"/>
</g>
</svg>
