<svg width="176" height="115" viewBox="0 0 176 115" fill="none" xmlns="http://www.w3.org/2000/svg">
<path d="M1 114C1 114 5.6695 86.7368 20.3829 82.583C31.7115 79.3847 37.9595 90.9418 49.7342 89.6771C71.6813 87.3199 67.1023 40.1148 86.2848 50.1525C95.3994 54.9219 91.3399 66.5457 100.684 70.9282C119.104 79.5682 106.234 35.7512 125.051 27.8565C130.915 25.3958 135.077 26.4011 141.111 24.3094C148.812 21.6396 152.705 19.0877 159.386 14.6816C166.467 10.0115 170.181 6.95327 176 1" stroke="#8CD2F4"/>
<path d="M20.3829 82.583C5.6695 86.7368 1 114 1 114H176V1C170.181 6.95327 166.467 10.0115 159.386 14.6816C152.705 19.0877 148.812 21.6396 141.111 24.3094C135.077 26.4011 130.915 25.3958 125.051 27.8565C106.234 35.7512 119.104 79.5682 100.684 70.9282C91.3399 66.5457 95.3994 54.9219 86.2848 50.1525C67.1023 40.1148 71.6813 87.3199 49.7342 89.6771C37.9595 90.9418 31.7115 79.3847 20.3829 82.583Z" fill="url(#paint0_linear_362_139)"/>
<defs>
<linearGradient id="paint0_linear_362_139" x1="88.5" y1="1" x2="88.5" y2="114" gradientUnits="userSpaceOnUse">
<stop stop-color="#149EE3"/>
<stop offset="1" stop-color="#FEFFFF" stop-opacity="0.15"/>
</linearGradient>
</defs>
</svg>
