<svg width="150" height="87" viewBox="0 0 150 87" fill="none" xmlns="http://www.w3.org/2000/svg">
<path d="M0.5 86C0.5 86 15.0665 85.252 23 81C31.8846 76.2383 34.4457 70.1583 41 62.5C49.4572 52.6183 50.9527 44.3329 60.5 35.5C69.7678 26.9257 75.779 21.6714 88 18.5C98.3951 15.8024 105.088 21.1319 115.5 18.5C125.322 16.0172 129.286 10.7109 138.5 6.5C143.514 4.20876 146.364 3.00279 151.5 1" stroke="#6B47E8"/>
<path d="M22.5 81.5C14.5665 85.752 0 86.5 0 86.5H151V1.5C145.864 3.50279 143.014 4.70876 138 7C128.786 11.2109 124.822 16.5172 115 19C104.588 21.6319 97.8951 16.3024 87.5 19C75.279 22.1714 69.2678 27.4257 60 36C50.4527 44.8329 48.9572 53.1183 40.5 63C33.9457 70.6583 31.3846 76.7383 22.5 81.5Z" fill="url(#paint0_linear_362_148)"/>
<defs>
<linearGradient id="paint0_linear_362_148" x1="75.5" y1="1.5" x2="75.5" y2="86.5" gradientUnits="userSpaceOnUse">
<stop stop-color="#6B47E8"/>
<stop offset="1" stop-color="#FCFBFF" stop-opacity="0"/>
</linearGradient>
</defs>
</svg>
