<svg width="46" height="46" viewBox="0 0 46 46" fill="none" xmlns="http://www.w3.org/2000/svg">
<rect width="46" height="46" rx="12" fill="white" fill-opacity="0.2"/>
<path fill-rule="evenodd" clip-rule="evenodd" d="M19.25 14.5625C19.25 13.8166 19.5463 13.1012 20.0738 12.5738C20.6012 12.0463 21.3166 11.75 22.0625 11.75H23.9375C24.6834 11.75 25.3988 12.0463 25.9262 12.5738C26.4537 13.1012 26.75 13.8166 26.75 14.5625V16.4375C26.75 17.1834 26.4537 17.8988 25.9262 18.4262C25.3988 18.9537 24.6834 19.25 23.9375 19.25V21.125H34.25C34.4986 21.125 34.7371 21.2238 34.9129 21.3996C35.0887 21.5754 35.1875 21.8139 35.1875 22.0625V23.9375C35.1875 24.1861 35.0887 24.4246 34.9129 24.6004C34.7371 24.7762 34.4986 24.875 34.25 24.875C34.0014 24.875 33.7629 24.7762 33.5871 24.6004C33.4113 24.4246 33.3125 24.1861 33.3125 23.9375V23H23.9375V23.9375C23.9375 24.1861 23.8387 24.4246 23.6629 24.6004C23.4871 24.7762 23.2486 24.875 23 24.875C22.7514 24.875 22.5129 24.7762 22.3371 24.6004C22.1613 24.4246 22.0625 24.1861 22.0625 23.9375V23H12.6875V23.9375C12.6875 24.1861 12.5887 24.4246 12.4129 24.6004C12.2371 24.7762 11.9986 24.875 11.75 24.875C11.5014 24.875 11.2629 24.7762 11.0871 24.6004C10.9113 24.4246 10.8125 24.1861 10.8125 23.9375V22.0625C10.8125 21.8139 10.9113 21.5754 11.0871 21.3996C11.2629 21.2238 11.5014 21.125 11.75 21.125H22.0625V19.25C21.3166 19.25 20.6012 18.9537 20.0738 18.4262C19.5463 17.8988 19.25 17.1834 19.25 16.4375V14.5625ZM8 29.5625C8 28.8166 8.29632 28.1012 8.82376 27.5738C9.35121 27.0463 10.0666 26.75 10.8125 26.75H12.6875C13.4334 26.75 14.1488 27.0463 14.6762 27.5738C15.2037 28.1012 15.5 28.8166 15.5 29.5625V31.4375C15.5 32.1834 15.2037 32.8988 14.6762 33.4262C14.1488 33.9537 13.4334 34.25 12.6875 34.25H10.8125C10.0666 34.25 9.35121 33.9537 8.82376 33.4262C8.29632 32.8988 8 32.1834 8 31.4375V29.5625ZM19.25 29.5625C19.25 28.8166 19.5463 28.1012 20.0738 27.5738C20.6012 27.0463 21.3166 26.75 22.0625 26.75H23.9375C24.6834 26.75 25.3988 27.0463 25.9262 27.5738C26.4537 28.1012 26.75 28.8166 26.75 29.5625V31.4375C26.75 32.1834 26.4537 32.8988 25.9262 33.4262C25.3988 33.9537 24.6834 34.25 23.9375 34.25H22.0625C21.3166 34.25 20.6012 33.9537 20.0738 33.4262C19.5463 32.8988 19.25 32.1834 19.25 31.4375V29.5625ZM30.5 29.5625C30.5 28.8166 30.7963 28.1012 31.3238 27.5738C31.8512 27.0463 32.5666 26.75 33.3125 26.75H35.1875C35.9334 26.75 36.6488 27.0463 37.1762 27.5738C37.7037 28.1012 38 28.8166 38 29.5625V31.4375C38 32.1834 37.7037 32.8988 37.1762 33.4262C36.6488 33.9537 35.9334 34.25 35.1875 34.25H33.3125C32.5666 34.25 31.8512 33.9537 31.3238 33.4262C30.7963 32.8988 30.5 32.1834 30.5 31.4375V29.5625Z" fill="white"/>
</svg>
