<svg width="46" height="46" viewBox="0 0 46 46" fill="none" xmlns="http://www.w3.org/2000/svg">
<rect width="46" height="46" rx="12" fill="white" fill-opacity="0.2"/>
<path d="M22.9363 26.1745C27.2253 26.1745 30.8875 26.8545 30.8875 29.5754C30.8875 32.2953 27.2488 33 22.9363 33C18.6473 33 14.9851 32.32 14.9851 29.6002C14.9851 26.8793 18.6238 26.1745 22.9363 26.1745ZM29.7938 24.5361C31.4335 24.5057 33.1964 24.7309 33.8478 24.8907C35.2278 25.162 36.1355 25.7159 36.5116 26.5208C36.8295 27.1816 36.8295 27.9483 36.5116 28.608C35.9363 29.8564 34.0817 30.2572 33.3609 30.3608C33.212 30.3833 33.0923 30.2538 33.1079 30.1041C33.4762 26.6446 30.5471 25.0044 29.7894 24.6273C29.7569 24.6104 29.7502 24.5845 29.7535 24.5687C29.7558 24.5575 29.7692 24.5395 29.7938 24.5361ZM16.207 24.5365C16.2316 24.5399 16.2439 24.5579 16.2462 24.5681C16.2495 24.585 16.2428 24.6097 16.2115 24.6277C15.4526 25.0049 12.5235 26.6451 12.8918 30.1034C12.9074 30.2543 12.7888 30.3826 12.6399 30.3612C11.9191 30.2577 10.0645 29.8569 9.48924 28.6084C9.17025 27.9476 9.17025 27.1821 9.48924 26.5213C9.86531 25.7163 10.7719 25.1625 12.1519 24.89C12.8045 24.7313 14.5662 24.5062 16.207 24.5365ZM22.9363 13C25.8564 13 28.1979 15.3528 28.1979 18.2911C28.1979 21.2282 25.8564 23.5833 22.9363 23.5833C20.0162 23.5833 17.6747 21.2282 17.6747 18.2911C17.6747 15.3528 20.0162 13 22.9363 13ZM30.0793 13.8824C32.8998 13.8824 35.1148 16.5515 34.3604 19.5247C33.8511 21.5263 32.0077 22.8558 29.9539 22.8018C29.7479 22.7961 29.5454 22.777 29.3495 22.7432C29.2074 22.7184 29.1357 22.5575 29.2163 22.4381C29.9998 21.2786 30.4464 19.8838 30.4464 18.3865C30.4464 16.824 29.9584 15.3672 29.1111 14.1728C29.0842 14.1357 29.0641 14.0783 29.0909 14.0355C29.1133 14.0006 29.1547 13.9826 29.1939 13.9736C29.4793 13.915 29.7726 13.8824 30.0793 13.8824ZM15.9199 13.8823C16.2266 13.8823 16.5198 13.9149 16.8064 13.9734C16.8444 13.9824 16.8869 14.0016 16.9093 14.0354C16.9351 14.0781 16.916 14.1356 16.8892 14.1727C16.0419 15.3671 15.5539 16.8239 15.5539 18.3864C15.5539 19.8837 16.0005 21.2785 16.784 22.438C16.8646 22.5574 16.7929 22.7183 16.6508 22.7431C16.4538 22.778 16.2523 22.796 16.0464 22.8016C13.9926 22.8557 12.1491 21.5262 11.6399 19.5246C10.8844 16.5514 13.0994 13.8823 15.9199 13.8823Z" fill="white"/>
</svg>
