<svg width="46" height="46" viewBox="0 0 46 46" fill="none" xmlns="http://www.w3.org/2000/svg">
<rect width="46" height="46" rx="12" fill="white" fill-opacity="0.2"/>
<path d="M22.9809 10.5C26.8169 10.5 29.9034 13.5185 29.9034 17.245V19.1617C32.0563 19.8337 33.625 21.7827 33.625 24.1105V30.2816C33.625 33.1635 31.2358 35.5 28.2903 35.5H17.711C14.7642 35.5 12.375 33.1635 12.375 30.2816V24.1105C12.375 21.7827 13.9449 19.8337 16.0966 19.1617V17.245C16.1093 13.5185 19.1958 10.5 22.9809 10.5ZM22.9936 24.7303C22.384 24.7303 21.8886 25.2148 21.8886 25.811V28.5687C21.8886 29.1773 22.384 29.6618 22.9936 29.6618C23.616 29.6618 24.1114 29.1773 24.1114 28.5687V25.811C24.1114 25.2148 23.616 24.7303 22.9936 24.7303ZM23.0064 12.6738C20.4279 12.6738 18.3321 14.711 18.3194 17.2202V18.8921H27.6806V17.245C27.6806 14.7234 25.5848 12.6738 23.0064 12.6738Z" fill="white"/>
</svg>
