<svg width="127" height="140" viewBox="0 0 127 140" fill="none" xmlns="http://www.w3.org/2000/svg">
<path d="M15 111.5C3.66993 110.646 1 139.5 1 139.5H126.5V1C126.5 1 114.921 8.99959 109.5 16C99.2516 29.2351 111.903 64.6216 97 57C85.8236 51.2844 95.9579 36.0975 88.5 26C72.0872 3.77809 89.5293 112.486 69 94C60.0412 85.9327 66.7462 76.096 57 69C37.9779 55.1505 52.0935 129.347 30.5 120C24.1443 117.249 21.906 112.02 15 111.5Z" fill="url(#paint0_linear_362_153)"/>
<path d="M1 139.5C1 139.5 3.66993 110.646 15 111.5C21.906 112.02 24.1443 117.249 30.5 120C52.0935 129.347 37.9779 55.1505 57 69C66.7462 76.096 60.0412 85.9327 69 94C89.5293 112.486 72.0872 3.77809 88.5 26C95.9579 36.0975 85.8236 51.2844 97 57C111.903 64.6216 99.2516 29.2351 109.5 16C114.921 8.99959 126.5 1 126.5 1" stroke="#5287F5"/>
<defs>
<linearGradient id="paint0_linear_362_153" x1="70.75" y1="1" x2="70.75" y2="139.5" gradientUnits="userSpaceOnUse">
<stop stop-color="#5288F5"/>
<stop offset="1" stop-color="white" stop-opacity="0.04"/>
</linearGradient>
</defs>
</svg>
