<svg width="46" height="46" viewBox="0 0 46 46" fill="none" xmlns="http://www.w3.org/2000/svg">
<rect width="46" height="46" rx="12" fill="white" fill-opacity="0.2"/>
<path d="M25.5 24.25H33C33.3315 24.25 33.6495 24.1183 33.8839 23.8839C34.1183 23.6495 34.25 23.3315 34.25 23V19.25C34.25 18.9185 34.1183 18.6005 33.8839 18.3661C33.6495 18.1317 33.3315 18 33 18H29.25L28 16.75H25.5C25.1685 16.75 24.8505 16.8817 24.6161 17.1161C24.3817 17.3505 24.25 17.6685 24.25 18V19.25H18V16.75H20.5C20.8315 16.75 21.1495 16.6183 21.3839 16.3839C21.6183 16.1495 21.75 15.8315 21.75 15.5V11.75C21.75 11.4185 21.6183 11.1005 21.3839 10.8661C21.1495 10.6317 20.8315 10.5 20.5 10.5H16.75L15.5 9.25H13C12.6685 9.25 12.3505 9.3817 12.1161 9.61612C11.8817 9.85054 11.75 10.1685 11.75 10.5V15.5C11.75 15.8315 11.8817 16.1495 12.1161 16.3839C12.3505 16.6183 12.6685 16.75 13 16.75H15.5V33H24.25V34.25C24.25 34.5815 24.3817 34.8995 24.6161 35.1339C24.8505 35.3683 25.1685 35.5 25.5 35.5H33C33.3315 35.5 33.6495 35.3683 33.8839 35.1339C34.1183 34.8995 34.25 34.5815 34.25 34.25V30.5C34.25 30.1685 34.1183 29.8505 33.8839 29.6161C33.6495 29.3817 33.3315 29.25 33 29.25H29.25L28 28H25.5C25.1685 28 24.8505 28.1317 24.6161 28.3661C24.3817 28.6005 24.25 28.9185 24.25 29.25V30.5H18V21.75H24.25V23C24.25 23.3315 24.3817 23.6495 24.6161 23.8839C24.8505 24.1183 25.1685 24.25 25.5 24.25Z" fill="white"/>
</svg>
