<svg width="40" height="44" viewBox="0 0 40 44" fill="none" xmlns="http://www.w3.org/2000/svg">
<path d="M20.8763 0.4981C20.0637 0.811333 19.8085 1.86433 20.375 2.55411C20.5307 2.74405 20.7019 2.85069 20.9977 2.94399C21.337 3.05062 21.4179 3.15392 21.8071 3.98366C22.0935 4.59679 22.1277 4.68676 22.1277 4.84671C22.1277 4.97667 22.1028 5.07664 22.0405 5.20993C21.6607 6.00634 21.9347 6.92605 22.6694 7.31926C22.9153 7.45255 23.0679 7.61583 23.1114 7.79911C23.2889 8.53221 23.4259 9.20533 23.4259 9.35861C23.4259 9.53522 23.3543 9.68517 23.1581 9.92509C22.8593 10.285 22.8531 10.2883 21.9067 10.2517C20.9416 10.215 20.9447 10.2183 20.649 9.78514C20.4498 9.49523 20.263 9.31862 19.9548 9.13535C19.6497 8.95207 19.6092 8.8621 19.5003 8.12234C19.4505 7.77578 19.3882 7.36258 19.3602 7.1993C19.2979 6.84274 19.3135 6.74277 19.4754 6.4762C19.6528 6.18296 19.7244 5.96636 19.7431 5.67645C19.7742 5.21326 19.6404 4.82672 19.3415 4.50016C18.6597 3.76373 17.483 3.98366 17.069 4.93002C16.9911 5.10996 16.9693 5.2066 16.9569 5.45652C16.9258 6.09632 17.1841 6.59282 17.7103 6.90939C18.0309 7.10266 18.0714 7.20929 18.2146 8.20231C18.2582 8.51888 18.2862 8.82878 18.2768 8.88876C18.2488 9.04204 18.1212 9.23865 17.9562 9.37527C17.8254 9.48524 17.6885 9.66185 17.455 10.0217C17.2962 10.265 17.1935 10.3016 16.4464 10.3583C16.0977 10.3849 15.5716 10.4316 15.2758 10.4616C14.6128 10.5282 14.5661 10.5149 14.2236 10.1717C13.9559 9.90843 13.7504 9.79181 13.4142 9.71849C12.7387 9.57187 11.9791 9.92843 11.6771 10.5416C11.5775 10.7482 11.4312 10.9248 11.316 10.9914C11.2724 11.0147 11.0358 11.0747 10.7868 11.1247C10.5377 11.1714 10.0428 11.2813 9.68165 11.3646C8.92206 11.5412 8.81622 11.5479 8.63254 11.4279C8.15936 11.1247 7.85116 11.0381 7.47448 11.1047C7.01375 11.188 6.6215 11.5079 6.41915 11.9644C6.32576 12.181 6.31953 12.211 6.31953 12.5909C6.31953 12.9708 6.32576 13.0008 6.41915 13.214C6.7647 13.9971 7.60212 14.3104 8.32746 13.9338C8.56094 13.8105 8.81933 13.5539 8.91895 13.3373C9.02479 13.1107 9.13064 12.9808 9.25516 12.9108C9.42638 12.8175 11.2382 12.4076 11.4686 12.4076C11.5993 12.411 11.7923 12.5209 11.9822 12.7042C12.2997 13.0141 12.6173 13.1407 13.0749 13.1407C13.6882 13.1407 14.1676 12.8642 14.4851 12.331C14.6252 12.0944 14.7497 11.9611 14.8711 11.9111C15.0112 11.8545 16.5397 11.7079 16.9849 11.7079C17.2744 11.7079 17.4021 11.7812 17.6138 12.0677C17.8068 12.3277 17.9406 12.4576 18.171 12.6176C18.5446 12.8742 18.5695 12.9608 18.5695 13.9038C18.5695 14.3004 18.5539 14.6902 18.5352 14.7735C18.4916 14.9768 18.3858 15.1134 18.1212 15.3034C17.869 15.4867 17.6044 15.7799 17.5048 15.9865C17.2869 16.443 17.181 16.5063 16.4526 16.6063C16.1693 16.643 15.6089 16.7296 15.2042 16.7929C14.2952 16.9395 14.3139 16.9429 13.9466 16.5763C13.5419 16.1764 13.1589 16.0065 12.6391 16.0065C11.8359 16.0065 11.2039 16.4663 10.8771 17.2861C10.7152 17.6926 10.6903 17.7059 9.75325 17.9625C9.32053 18.0792 8.69169 18.2591 8.35859 18.3591C7.64881 18.5757 7.5274 18.5823 7.28147 18.4157C7.03243 18.2458 6.85187 18.1958 6.52188 18.1958C5.90549 18.1958 5.48834 18.489 5.19883 19.1255C5.09298 19.3521 5.03072 19.4521 4.9529 19.502C4.89686 19.5387 4.53886 19.7053 4.15284 19.8686C3.37768 20.1985 2.91383 20.4118 2.28188 20.725C2.0484 20.8416 1.82115 20.9382 1.78068 20.9382C1.73709 20.9382 1.61257 20.9149 1.50361 20.8849C0.915243 20.7217 0.351777 20.9949 0.0996183 21.5647C0.00933921 21.768 0 21.818 0 22.1045C0 22.3778 0.0124523 22.4478 0.0840529 22.611C0.554127 23.694 1.97057 23.5807 2.31612 22.4278C2.38773 22.1945 2.61809 22.0546 3.86021 21.4881C4.74743 21.0849 5.28911 20.8716 5.43542 20.8716C5.5257 20.8716 5.65645 20.9183 5.84946 21.0116C6.11096 21.1415 6.15765 21.1548 6.44406 21.1648C6.70244 21.1748 6.78961 21.1648 6.9546 21.1049C7.3593 20.9616 7.60212 20.725 7.81069 20.2818C7.96946 19.9419 8.04417 19.8919 8.67924 19.6986C9.65986 19.3987 10.6498 19.1388 10.7961 19.1388C11.0016 19.1388 11.1199 19.1988 11.3534 19.4287C11.7301 19.7919 12.0881 19.9386 12.6079 19.9386C13.1589 19.9386 13.573 19.7586 13.9466 19.3588C14.1178 19.1755 14.1987 19.0489 14.3201 18.7889C14.5474 18.3024 14.5629 18.2924 15.3972 18.1558C15.7646 18.0958 16.3125 18.0125 16.6145 17.9692C17.3211 17.8726 17.3398 17.8759 17.6822 18.2524C17.8192 18.3991 17.9935 18.579 18.0683 18.649C18.2301 18.8056 18.2893 18.9456 18.2893 19.1821C18.2893 19.3554 18.1212 21.0349 18.0869 21.2082C18.0745 21.2581 18.0278 21.3648 17.9811 21.4448C17.9095 21.5614 17.841 21.6214 17.6324 21.738C17.2589 21.9446 16.9476 22.2812 16.7452 22.7044C16.5211 23.1675 16.5211 23.1675 15.5436 23.3708C15.1015 23.4641 14.3948 23.6207 13.9715 23.7207C13.545 23.8207 13.1465 23.904 13.0811 23.904C12.9317 23.904 12.7698 23.8307 12.636 23.7074C12.1659 23.2642 11.4312 23.1775 10.821 23.4941C10.7308 23.5408 10.5564 23.6774 10.4381 23.7973C10.2545 23.9839 10.1984 24.0706 10.0677 24.3572C9.96494 24.5904 9.884 24.727 9.81551 24.7837C9.75014 24.8337 9.47619 24.9436 9.09017 25.0669C8.74773 25.1802 8.05974 25.4168 7.56165 25.5934L6.65886 25.9167L6.5032 25.8567C6.14831 25.7201 6.03936 25.7001 5.8121 25.7167C5.3825 25.7467 5.00893 26.0133 4.81903 26.4298C4.74121 26.5998 4.73187 26.6531 4.73187 26.9697C4.73187 27.2896 4.74121 27.3362 4.82215 27.5195C4.94044 27.7727 5.14902 27.9993 5.38561 28.1193C5.55372 28.2059 5.60353 28.2159 5.8837 28.2193C6.16077 28.2193 6.2168 28.2093 6.38179 28.126C6.60905 28.0127 6.84253 27.7761 6.94837 27.5528C7.04488 27.3462 7.12893 27.2462 7.26902 27.1696C7.39666 27.0996 8.76952 26.6131 9.526 26.3699C10.1175 26.1766 10.2264 26.1732 10.435 26.3265C10.5004 26.3765 10.6093 26.4565 10.6778 26.5065C10.9207 26.6831 11.1168 26.7431 11.4872 26.7631C11.7985 26.7764 11.8515 26.7697 12.0756 26.6897C12.527 26.5265 12.8601 26.2166 13.0469 25.7867C13.2305 25.3668 13.3177 25.2935 13.7909 25.1769C14.3108 25.0469 15.3817 24.807 15.9701 24.6871C16.7203 24.5338 16.7577 24.5438 17.1125 24.927C17.3585 25.1902 17.4488 25.3568 17.4488 25.5335C17.4488 25.7867 16.8635 28.7291 16.7763 28.9057C16.7016 29.0623 16.5958 29.1523 16.3156 29.2989C15.9265 29.5022 15.6525 29.8287 15.4875 30.2853C15.4253 30.4552 15.4128 30.5485 15.4128 30.8851C15.4128 31.3516 15.4595 31.5249 15.6961 31.8948C15.8673 32.1613 15.9234 32.2946 15.9234 32.4446C15.9234 32.6245 15.1638 35.1937 15.0206 35.5003C14.949 35.6469 14.896 35.6969 14.6532 35.8335C14.4135 35.9701 14.2641 36.1401 14.1396 36.43C14.0524 36.6266 14.0431 36.6832 14.0431 36.9498C14.0431 37.2164 14.0524 37.273 14.1396 37.473C14.373 38.0028 14.8431 38.2694 15.4035 38.1927C16.1288 38.0894 16.5678 37.2764 16.3156 36.4966C16.272 36.36 16.2347 36.1967 16.2347 36.1401C16.2347 36.0801 16.3716 35.5869 16.5429 35.0404C16.711 34.4973 16.9227 33.7842 17.0129 33.4609C17.2153 32.7378 17.2433 32.6912 17.6636 32.4779C17.9033 32.3579 18.0029 32.2813 18.1648 32.1047C18.4948 31.7448 18.6317 31.3783 18.6317 30.8484C18.6317 30.3719 18.5601 30.172 18.1772 29.5955C18.0434 29.3922 18.0496 29.3056 18.2675 28.2193C18.3796 27.6694 18.529 26.8997 18.6006 26.5065C18.6722 26.1133 18.7469 25.7534 18.7718 25.7067C18.8403 25.5668 18.9742 25.4535 19.2543 25.3002C19.5999 25.1136 19.9081 24.7904 20.0762 24.4371C20.3221 23.924 20.3221 23.924 21.5767 23.7773C22.5666 23.6574 22.576 23.6574 22.7223 23.7174C22.8126 23.754 22.9184 23.834 22.9869 23.9173C23.0492 23.9906 23.2079 24.1672 23.3387 24.3038C23.6033 24.5771 23.6749 24.7204 23.6749 24.9603C23.6749 25.1269 23.4196 27.083 23.3636 27.3595C23.3013 27.6461 23.2048 27.7561 22.8344 27.946C22.6258 28.0493 22.52 28.1326 22.3332 28.3326C21.9783 28.7124 21.8133 29.099 21.7853 29.6388C21.7541 30.2153 21.9036 30.6918 22.2429 31.0817C22.5978 31.4882 22.604 31.5282 22.383 32.4679C22.0997 33.6809 21.8755 34.5039 21.7884 34.6372C21.7323 34.7239 21.6234 34.8072 21.4304 34.9205C20.8576 35.2437 20.593 35.7435 20.6334 36.4233C20.6459 36.6599 20.6677 36.7432 20.7829 37.0031C20.9728 37.433 20.9696 37.453 20.6148 38.3993C20.0731 39.8389 19.7431 40.5887 19.6061 40.6886C19.5594 40.7253 19.4536 40.7786 19.3758 40.8086C19.052 40.9385 18.8279 41.1585 18.6846 41.4884C18.6286 41.6217 18.6162 41.705 18.6162 42.0149C18.6162 42.3214 18.6286 42.4081 18.6846 42.5414C18.778 42.758 19.0333 43.0345 19.245 43.1512C19.4131 43.2411 19.4505 43.2478 19.768 43.2478C20.0918 43.2478 20.1198 43.2411 20.2972 43.1412C20.8233 42.8446 21.0444 42.2615 20.8887 41.585L20.8327 41.3484L20.9136 41.1485C20.9572 41.0385 21.1253 40.632 21.2872 40.2488C21.4491 39.8622 21.6888 39.2557 21.8195 38.8992C22.218 37.8162 22.1806 37.8762 22.5698 37.6796C23.1052 37.4097 23.4259 36.8865 23.4259 36.2834C23.4259 36.0101 23.3605 35.7602 23.2079 35.4536C23.1395 35.3137 23.0834 35.1504 23.0834 35.0937C23.0834 35.0404 23.1737 34.6472 23.2827 34.2207C23.3947 33.7975 23.5566 33.1444 23.6438 32.7678C23.7309 32.3913 23.815 32.0447 23.8337 31.9947C23.8866 31.8548 24.0734 31.6915 24.2819 31.6015C24.8703 31.3516 25.2812 30.8384 25.4213 30.1786C25.4618 29.972 25.4618 29.4489 25.4151 29.2489C25.3466 28.9324 25.1847 28.6325 24.9264 28.3259C24.5995 27.946 24.5933 27.9127 24.6898 27.2329C24.7302 26.9497 24.8112 26.3432 24.8703 25.8833C25.0073 24.817 25.0229 24.777 25.468 24.5238C25.7108 24.3838 25.9225 24.1672 26.1155 23.864C26.3802 23.4441 26.4082 23.4275 27.0495 23.3941C27.7655 23.3575 28.1453 23.3775 28.3009 23.4641C28.4441 23.5441 28.5095 23.6174 28.6807 23.894C28.7523 24.0073 28.8893 24.1706 28.9889 24.2605C29.5088 24.7304 29.5119 24.7337 29.4496 25.6368C29.378 26.6431 29.3407 27.073 29.3064 27.2396C29.266 27.4362 29.1352 27.6028 28.9298 27.7294C28.6153 27.9227 28.3445 28.2726 28.2169 28.6525C28.1359 28.899 28.1048 29.3822 28.1546 29.6388C28.2106 29.9187 28.3476 30.1986 28.5469 30.4386C28.7554 30.6851 28.8115 30.8084 28.8115 31.015C28.8115 31.145 28.5904 32.3979 28.4535 33.0211C28.3819 33.361 28.2854 33.4976 28.0021 33.6809C27.4635 34.0241 27.23 34.4773 27.2612 35.1237C27.2767 35.397 27.2923 35.467 27.3919 35.6802C27.6627 36.27 28.2729 36.6099 28.8675 36.5066C29.5991 36.3767 30.1003 35.7035 30.0474 34.9205C30.0287 34.6272 29.9633 34.4173 29.8014 34.1407C29.7236 34.0107 29.6707 33.8741 29.6613 33.7875C29.6489 33.6942 29.6956 33.3843 29.8045 32.8478C29.8917 32.4113 29.9975 31.8581 30.038 31.6182C30.1345 31.0883 30.1937 30.9817 30.5081 30.7951C31.1681 30.3986 31.4918 29.6055 31.3175 28.8091C31.2521 28.5092 31.1369 28.2926 30.9159 28.0393C30.5921 27.6728 30.5766 27.6061 30.6326 26.9763C30.6575 26.7264 30.698 26.1832 30.726 25.77C30.754 25.3568 30.7914 24.9703 30.8069 24.9103C30.8536 24.7537 30.9688 24.6204 31.2054 24.4571C31.3206 24.3772 31.5043 24.2039 31.6163 24.0739C31.9681 23.6507 32.0491 23.6341 32.9768 23.8007C33.7177 23.934 33.7768 23.9673 33.9792 24.3372C34.4555 25.2102 35.5544 25.3868 36.2019 24.6937C37.0237 23.814 36.5724 22.3245 35.4236 22.1312C35.0501 22.0712 34.745 22.1545 34.3247 22.4378C34.0788 22.6011 34.057 22.6011 33.3503 22.4744C33.0546 22.4211 32.6904 22.3611 32.544 22.3378C32.13 22.2778 32.0553 22.2178 31.7689 21.7047C31.6599 21.5081 31.4451 21.2781 31.2116 21.1049C30.8848 20.8616 30.8723 20.8183 30.835 19.8319C30.8007 18.8189 30.8038 18.8056 31.1183 18.4924C31.2428 18.3691 31.3984 18.2524 31.4794 18.2191C31.6506 18.1491 31.7751 18.1658 32.6437 18.3924C33.3192 18.5657 33.397 18.619 33.5682 18.9789C33.8484 19.5754 34.3123 19.8653 34.9504 19.8319C35.2026 19.8186 35.2711 19.8019 35.5015 19.692C35.8813 19.5054 35.9529 19.5187 36.6315 19.8819C37.4471 20.3184 37.581 20.4317 37.6526 20.7516C37.7429 21.1515 38.0013 21.5014 38.3312 21.6647C38.4869 21.7447 38.5492 21.7547 38.82 21.7547C39.1095 21.7547 39.1469 21.748 39.3399 21.6447C39.8099 21.3981 40.0683 20.8583 39.9843 20.3018C39.9096 19.8053 39.5951 19.4287 39.1344 19.2888C38.9881 19.2421 38.8885 19.2355 38.6363 19.2555C38.2783 19.2788 38.3873 19.3188 37.6059 18.8656C37.3662 18.7256 37.0175 18.539 36.8276 18.4524C36.4914 18.2924 36.2206 18.0725 36.2206 17.9625C36.2206 17.9359 36.1708 17.8092 36.1116 17.6826C35.7412 16.8862 34.7574 16.5996 34.0694 17.0895C33.8204 17.2661 33.7488 17.2661 33.0919 17.0928C32.7682 17.0095 32.3604 16.9095 32.1891 16.8729C31.7876 16.7829 31.6911 16.7129 31.5012 16.3764C31.3237 16.0565 31.1369 15.8432 30.863 15.6566C30.5921 15.4667 30.5268 15.35 30.4738 14.9468C30.4489 14.7702 30.3805 14.2737 30.3182 13.8438L30.203 13.0674L30.3089 12.9575L30.4147 12.8475L30.835 12.9708C31.0653 13.0408 31.5198 13.1841 31.8467 13.2907C32.5222 13.5173 32.6312 13.5873 32.79 13.8905C32.9332 14.1637 33.0857 14.3237 33.3254 14.4503C33.5122 14.5503 33.5496 14.557 33.8546 14.557C34.1504 14.557 34.1971 14.547 34.359 14.4636C35.0065 14.1238 35.2306 13.2407 34.8259 12.6076C34.5053 12.1044 33.9574 11.9311 33.3783 12.1511C33.2476 12.201 33.1106 12.241 33.0764 12.241C33.0421 12.241 32.7775 12.1577 32.488 12.0577C32.1985 11.9578 31.7315 11.8078 31.4545 11.7212C31.1743 11.6379 30.9097 11.5479 30.863 11.5213C30.7603 11.4646 30.6357 11.308 30.5517 11.1314C30.4521 10.9281 30.2217 10.6849 29.9882 10.5382C29.873 10.4649 29.7423 10.3583 29.6987 10.295C29.6489 10.225 29.5617 9.96841 29.4528 9.55521C29.3594 9.20866 29.2193 8.71215 29.1415 8.45556C29.0636 8.19565 28.9983 7.92573 28.9983 7.85575C28.9983 7.78911 29.0356 7.61583 29.0792 7.47921C29.1508 7.26261 29.1601 7.1893 29.1446 6.95271C29.1197 6.47953 28.908 6.12964 28.5251 5.90638C28.3507 5.80641 28.2978 5.79308 28.0332 5.78308C27.7001 5.76975 27.4915 5.82973 27.258 6.00968C26.9561 6.24294 26.7662 6.69613 26.7973 7.10266C26.8284 7.56918 27.0277 7.9024 27.4106 8.14233C27.5258 8.21564 27.6596 8.31894 27.7032 8.37559C27.7904 8.48889 28.027 9.23531 28.2667 10.155L28.413 10.7182L28.3071 10.8248L28.2044 10.9348L27.8775 10.8715C27.697 10.8381 27.2425 10.7648 26.8658 10.7082C26.0471 10.5816 25.9848 10.5549 25.7793 10.215C25.6112 9.93509 25.412 9.72849 25.1598 9.56854C24.7676 9.31862 24.7396 9.2753 24.6213 8.66883C24.5777 8.44223 24.4936 8.04903 24.4314 7.79244C24.2975 7.21596 24.3006 7.04268 24.4501 6.78276C24.945 5.93303 24.5715 4.81339 23.6936 4.51015C23.5753 4.47017 23.3013 4.21358 23.3013 4.1436C23.3013 4.08029 22.8468 3.09394 22.632 2.69407L22.4172 2.29419L22.4141 1.82768C22.4141 1.36782 22.411 1.3545 22.3145 1.14123C22.1931 0.877979 21.997 0.671379 21.751 0.551418C21.5238 0.441452 21.0911 0.414795 20.8763 0.4981ZM22.5916 11.6779C22.7441 11.7212 22.8717 11.8412 23.0212 12.0744C23.1612 12.2943 23.3325 12.461 23.5908 12.6276C23.8617 12.8075 23.9271 12.9475 23.9738 13.4873C24.0609 14.457 24.0236 14.6169 23.6282 14.8868C23.3916 15.0501 23.1737 15.2934 22.9713 15.6233C22.7005 16.0631 22.6818 16.0698 21.7915 16.1131C20.9012 16.1531 20.8233 16.1298 20.5774 15.7732C20.5151 15.6833 20.3533 15.51 20.2194 15.39C19.8365 15.0535 19.8458 15.0868 19.8458 13.9671C19.8458 12.8375 19.8427 12.8508 20.2194 12.5243C20.347 12.411 20.512 12.2377 20.5836 12.1377C20.9914 11.5779 20.9416 11.5979 21.8071 11.6246C22.1744 11.6346 22.5293 11.6579 22.5916 11.6779ZM26.7288 12.0744C27.7997 12.241 27.8558 12.261 28.0176 12.5043C28.2573 12.8608 28.3756 12.9974 28.5936 13.1541C28.9702 13.4306 28.9702 13.424 29.1259 14.6069C29.2504 15.5566 29.2504 15.5466 28.8955 15.9265C28.5562 16.2864 28.5531 16.2864 27.6908 16.2098C27.2394 16.1698 26.9872 16.1331 26.9281 16.0965C26.8004 16.0265 26.6915 15.8932 26.5701 15.6599C26.4237 15.3834 26.0875 15.0135 25.8354 14.8569C25.3653 14.5636 25.3373 14.5036 25.2781 13.7139C25.2003 12.7009 25.2034 12.6809 25.5085 12.3477C25.7295 12.1077 25.8167 12.0411 25.9568 12.0078C26.0097 11.9911 26.0595 11.9811 26.0657 11.9778C26.0689 11.9744 26.3677 12.0211 26.7288 12.0744ZM22.6258 17.526C22.769 17.6026 22.8562 17.6993 22.9807 17.9059C23.1301 18.1491 23.4321 18.4824 23.6251 18.6123C23.8741 18.7789 24.0142 18.9356 24.0609 19.1088C24.117 19.3021 24.0734 20.5084 24.008 20.6817C23.9489 20.8283 23.8057 20.9749 23.6002 21.1015C23.3605 21.2448 23.0865 21.5447 22.9309 21.828C22.7254 22.2112 22.6133 22.2745 22.025 22.3378C21.8444 22.3578 21.3868 22.4111 21.0039 22.4578C20.1447 22.5644 20.1602 22.5711 19.7524 22.1379C19.4411 21.8046 19.3789 21.7013 19.3726 21.4981C19.3695 21.3248 19.5532 19.4954 19.5999 19.2421C19.6404 19.0255 19.7742 18.8556 20.0233 18.7056C20.2723 18.5557 20.5151 18.2991 20.705 17.9859C20.9416 17.5926 21.0257 17.5393 21.4491 17.506C22.0219 17.4594 22.52 17.4694 22.6258 17.526ZM27.918 17.606C28.3103 17.6493 28.441 17.7226 28.6122 18.0092C28.7897 18.3058 28.936 18.4757 29.1321 18.619C29.5057 18.8856 29.5306 18.9522 29.5524 19.8919C29.5679 20.6117 29.5648 20.635 29.4963 20.7883C29.4496 20.8949 29.3749 20.9816 29.2815 21.0515C29.1228 21.1648 28.7492 21.5581 28.6185 21.7413C28.5718 21.808 28.4753 21.8946 28.4005 21.9313C28.276 21.9946 28.2013 22.0012 27.3795 22.0079C26.4673 22.0146 26.3802 22.0046 26.2463 21.878C26.2152 21.848 26.1124 21.7213 26.0222 21.598C25.9288 21.4747 25.77 21.3048 25.6673 21.2215C25.4836 21.0715 25.4058 20.9549 25.356 20.765C25.3217 20.6483 25.3778 19.2988 25.4213 19.1288C25.4618 18.9622 25.6019 18.7989 25.8042 18.6756C26.0377 18.5357 26.3272 18.2391 26.5109 17.9525C26.6354 17.7626 26.7039 17.6893 26.8284 17.6226C26.981 17.5393 27.0059 17.536 27.3172 17.556C27.4978 17.5693 27.7686 17.5893 27.918 17.606Z" fill="#005CBF"/>
<path d="M16.5347 0.715614C16.2079 0.798921 15.8997 1.06884 15.744 1.40539C15.6662 1.57534 15.6569 1.62866 15.6569 1.94522C15.6569 2.27512 15.6631 2.31177 15.7565 2.51504C15.8779 2.77829 16.074 2.98156 16.3199 3.10485C16.4756 3.18483 16.5379 3.19482 16.8087 3.19482C17.0858 3.19482 17.1418 3.18483 17.3161 3.09819C17.5652 2.97489 17.8173 2.69165 17.9169 2.42174C18.0103 2.16515 18.0166 1.76861 17.9294 1.52202C17.7271 0.925547 17.1107 0.568994 16.5347 0.715614Z" fill="#005CBF"/>
<path d="M25.1998 1.52132C24.7639 1.65127 24.4962 2.04781 24.5024 2.54432C24.5087 2.93087 24.6954 3.25077 25.0285 3.43737C25.1624 3.51401 25.2215 3.52734 25.4488 3.52734C25.6761 3.52734 25.7383 3.51401 25.8909 3.43404C26.4543 3.13747 26.5913 2.33439 26.1648 1.83455C25.9189 1.54464 25.5329 1.42135 25.1998 1.52132Z" fill="#005CBF"/>
<path d="M11.9774 2.47721C11.6692 2.54385 11.4513 2.72713 11.3112 3.02703C11.2178 3.2303 11.2147 3.25696 11.2272 3.53354C11.2365 3.74347 11.2583 3.86343 11.305 3.96007C11.3891 4.13335 11.6225 4.36327 11.7938 4.43992C11.8654 4.47657 11.9681 4.55654 12.0179 4.62319C12.1238 4.75981 12.4973 5.50957 12.4973 5.58622C12.4973 5.61287 12.4724 5.66952 12.4413 5.70951C12.3915 5.77282 12.3199 5.78948 11.744 5.85946C10.5952 6.00275 9.53679 6.18269 8.40052 6.42928C8.02072 6.50926 7.68451 6.56924 7.65338 6.55591C7.61914 6.54591 7.48216 6.47926 7.34519 6.40595C7.0152 6.22934 6.7288 6.19935 6.40815 6.30599C5.88827 6.47593 5.5863 6.92246 5.5863 7.50894C5.5863 8.42864 6.39881 9.00846 7.21755 8.67523C7.40122 8.59859 7.64093 8.37866 7.82149 8.11208C7.86196 8.05543 7.93667 7.98545 7.98337 7.95879C8.21996 7.82883 10.1563 7.45895 11.6537 7.25902C12.3884 7.16238 12.4257 7.16571 12.7339 7.39231C13.0016 7.58891 13.2164 7.65556 13.5402 7.63556C13.9916 7.6089 14.334 7.35898 14.5302 6.91579C14.6204 6.71586 14.6298 6.66254 14.6267 6.39263C14.6267 6.16603 14.608 6.04607 14.5551 5.90278C14.4679 5.66286 14.2562 5.40961 14.0289 5.27298C13.7643 5.11303 13.7208 5.05972 13.5215 4.64318C13.4219 4.43325 13.288 4.16334 13.2289 4.04671C13.1293 3.85344 13.1199 3.81012 13.1199 3.5602C13.1199 3.20698 13.0577 3.02037 12.8678 2.79711C12.6374 2.52719 12.3012 2.40723 11.9774 2.47721Z" fill="#005CBF"/>
<path d="M30.7348 4.52172C30.1028 4.70832 29.9907 5.6147 30.5511 5.99791C30.7752 6.14786 30.9713 6.52774 31.2079 7.26084C31.2733 7.46078 31.3511 7.75402 31.3792 7.90397C31.4321 8.17722 31.4321 8.18388 31.3636 8.40048C31.1799 8.97696 31.3636 9.52345 31.8212 9.76338C32.0485 9.88001 32.3411 9.88667 32.6493 9.78004C32.8548 9.71006 32.8703 9.71006 33.1007 9.76005C33.7607 9.90333 34.7008 10.3432 34.8409 10.5731C35.0495 10.913 35.3047 11.063 35.6129 11.0296C36.1017 10.9763 36.4068 10.4998 36.2698 9.99997C36.192 9.71006 35.9834 9.4968 35.7126 9.42682C35.6627 9.41349 35.5351 9.34684 35.4293 9.27353C34.9685 8.9603 34.1872 8.62041 33.5708 8.45713C33.1879 8.35716 33.1318 8.32717 32.8983 8.06725C32.7458 7.89731 32.696 7.814 32.6617 7.67071C32.4781 6.95427 32.4345 6.79099 32.338 6.52441C32.2788 6.36113 32.1419 6.04456 32.036 5.82463C31.7341 5.21483 31.6842 5.10486 31.6251 4.94825C31.4975 4.60835 31.0928 4.41508 30.7348 4.52172Z" fill="#005CBF"/>
<path d="M1.98366 13.6203C1.67235 13.7269 1.3735 14.0069 1.2552 14.2934C0.993704 14.9232 1.24275 15.683 1.8031 15.9729C2.42572 16.2961 3.19465 15.9729 3.43746 15.2831C3.4935 15.1265 3.50284 15.0365 3.4935 14.7899C3.48416 14.53 3.4686 14.4567 3.38454 14.2701C3.18531 13.8369 2.83664 13.6003 2.37902 13.5837C2.21403 13.577 2.0646 13.5903 1.98366 13.6203Z" fill="#005CBF"/>
<path d="M37.8068 15.0172C37.3741 15.1471 37.1095 15.5237 37.1095 16.0069C37.1095 16.4201 37.2901 16.74 37.6356 16.9332C37.7664 17.0065 37.8317 17.0199 38.0559 17.0232C38.361 17.0232 38.5477 16.9466 38.7407 16.74C38.9338 16.5333 39.0054 16.3334 39.0054 16.0069C39.0054 15.7803 38.9929 15.6936 38.9338 15.5703C38.7314 15.1305 38.2333 14.8872 37.8068 15.0172Z" fill="#005CBF"/>
<path d="M38.141 24.0842C37.453 24.3941 37.1946 25.2704 37.5962 25.9436C37.9978 26.6233 38.9286 26.72 39.4392 26.1368C39.5201 26.0435 39.6228 25.8836 39.6695 25.777C39.7442 25.6103 39.7536 25.547 39.7536 25.2538C39.7536 24.9439 39.7474 24.9039 39.654 24.7006C39.5326 24.4374 39.3364 24.2341 39.0905 24.1108C38.9442 24.0375 38.8601 24.0208 38.6173 24.0108C38.362 24.0042 38.2967 24.0142 38.141 24.0842Z" fill="#005CBF"/>
<path d="M34.0656 27.6456C33.5955 27.8355 33.306 28.2354 33.2718 28.7553C33.25 29.0652 33.334 29.3817 33.5115 29.635C33.7232 29.9382 33.7232 29.9582 33.6111 30.9312C33.4555 32.2641 33.1192 34.3035 32.9947 34.66C32.9574 34.7667 32.8951 34.84 32.7426 34.9633C32.3316 35.2965 32.1511 35.743 32.2351 36.2362C32.3067 36.6561 32.5153 36.9626 32.8577 37.1459C33.4648 37.4691 34.1715 37.2192 34.4672 36.5728C34.545 36.3995 34.5544 36.3495 34.5544 36.0329C34.5544 35.6864 34.5513 35.6764 34.4236 35.3965C34.3458 35.2332 34.2898 35.0632 34.2898 34.9999C34.2898 34.9399 34.3458 34.5934 34.4143 34.2368C34.6291 33.0805 34.819 31.8009 34.9435 30.6113C35.0026 30.0548 35.012 30.0148 35.0867 29.9415C35.1863 29.8482 35.205 29.8516 35.6595 30.1115C36.0985 30.3647 36.1701 30.4281 36.2821 30.6646C36.3911 30.8946 36.5592 31.0745 36.7646 31.1745C36.995 31.2878 37.3592 31.2811 37.574 31.1611C37.7608 31.0578 37.9289 30.8712 38.0286 30.668C38.0877 30.5447 38.1002 30.4647 38.1002 30.2348C38.1002 29.9949 38.0877 29.9282 38.0192 29.7849C37.9196 29.585 37.7484 29.4017 37.5585 29.2984C37.4464 29.2384 37.3561 29.2218 37.1102 29.2118L36.802 29.2018L36.472 29.0052C36.2915 28.8985 36.0455 28.7586 35.9241 28.6919C35.6782 28.5586 35.6128 28.492 35.4883 28.2421C35.3824 28.0288 35.1925 27.8389 34.9684 27.7156C34.8283 27.6356 34.7598 27.6223 34.4921 27.6123C34.2835 27.6056 34.1434 27.6156 34.0656 27.6456Z" fill="#005CBF"/>
<path d="M2.00038 27.853C1.80114 27.923 1.53653 28.1862 1.44625 28.4095C1.39644 28.5328 1.37776 28.6494 1.37465 28.826C1.37154 29.4092 1.78246 29.849 2.33348 29.8457C2.63233 29.8424 2.83157 29.749 3.03392 29.5125C3.22693 29.2859 3.29853 29.0593 3.27674 28.7394C3.25183 28.3795 3.08061 28.0929 2.78176 27.9196C2.57941 27.803 2.23386 27.773 2.00038 27.853Z" fill="#005CBF"/>
<path d="M11.3458 29.2342C11.2524 29.2676 11.1279 29.3209 11.0687 29.3542C10.882 29.4575 10.6298 29.7441 10.4991 29.9973C10.4306 30.1306 10.3309 30.2739 10.2749 30.3206C10.222 30.3639 10.0041 30.4672 9.78927 30.5472C8.37594 31.0903 7.1276 31.7268 5.77652 32.5965L5.23174 32.9431L4.94845 32.9697C4.51573 33.0097 4.26357 33.1763 4.10169 33.5295C4.02698 33.6895 4.01453 33.7628 4.01453 33.9861C4.01453 34.2093 4.02698 34.2826 4.10169 34.4426C4.27914 34.8325 4.59044 35.0191 5.02005 34.9957C5.4372 34.9757 5.67379 34.7891 5.87926 34.3293C6.00378 34.0494 6.04736 34.016 6.89412 33.4962C7.87785 32.8931 9.05459 32.3066 10.0881 31.9034C10.6298 31.6935 10.7543 31.6701 10.7979 31.7868C10.8353 31.8934 10.3652 33.2063 9.92936 34.206C9.54023 35.099 8.78064 36.5752 8.59385 36.7985C8.55961 36.8418 8.42886 36.9251 8.31056 36.9851C7.89341 37.1884 7.67861 37.5616 7.70974 38.0314C7.73776 38.4246 7.93077 38.7179 8.27321 38.8845C8.43197 38.9645 8.48801 38.9745 8.69347 38.9611C9.23514 38.9345 9.58069 38.5579 9.61494 37.9581C9.6305 37.6649 9.62428 37.6849 9.99785 37.0184C10.7855 35.6155 11.5233 33.9261 11.9373 32.5932C12.0245 32.3099 12.1365 32.17 12.3825 32.03C12.6502 31.8801 12.8992 31.6035 13.0269 31.3202C13.1203 31.1136 13.1358 31.0503 13.1452 30.7471C13.1576 30.4672 13.1483 30.3739 13.0922 30.1973C12.9397 29.7041 12.5506 29.3209 12.0929 29.2076C11.8813 29.1543 11.5388 29.1676 11.3458 29.2342Z" fill="#005CBF"/>
<path d="M26.2041 39.5478C25.6344 39.7444 25.295 40.3409 25.3884 40.9707C25.4631 41.4605 25.7776 41.8404 26.2227 41.9804C26.6835 42.1236 27.2283 41.9337 27.5022 41.5305C27.6703 41.2806 27.7263 41.0573 27.7139 40.7008C27.7046 40.4175 27.6921 40.3609 27.5987 40.1743C27.387 39.7511 27.0477 39.5278 26.5994 39.5111C26.4344 39.5045 26.285 39.5178 26.2041 39.5478Z" fill="#005CBF"/>
<path d="M13.2041 39.7778C13.0048 39.8378 12.8149 39.9844 12.6935 40.1777C12.5597 40.3876 12.5192 40.5642 12.5348 40.8475C12.5597 41.2307 12.7371 41.5239 13.0515 41.6872C13.201 41.7672 13.2694 41.7805 13.478 41.7805C13.6866 41.7805 13.7551 41.7672 13.9045 41.6872C14.1224 41.5739 14.3123 41.3473 14.3808 41.1274C14.4555 40.8875 14.4337 40.4976 14.3341 40.2877C14.1349 39.8645 13.6461 39.6445 13.2041 39.7778Z" fill="#005CBF"/>
</svg>
