<svg width="24" height="24" viewBox="0 0 24 24" fill="none" xmlns="http://www.w3.org/2000/svg">
<path fill-rule="evenodd" clip-rule="evenodd" d="M3.5 9.568V14.432C3.5 16.726 3.5 17.872 4.222 18.585C4.877 19.232 5.896 19.291 7.818 19.297C7.81276 19.262 7.80776 19.227 7.803 19.192C7.688 18.348 7.688 17.276 7.688 15.945V15.892C7.688 15.489 8.019 15.162 8.428 15.162C8.836 15.162 9.167 15.489 9.167 15.892C9.167 17.288 9.168 18.262 9.268 18.997C9.366 19.711 9.543 20.09 9.816 20.359C10.089 20.629 10.472 20.804 11.195 20.899C11.939 20.999 12.926 21 14.341 21H15.326C16.741 21 17.727 20.998 18.472 20.9C19.195 20.804 19.578 20.628 19.85 20.359C20.123 20.089 20.301 19.711 20.398 18.997C20.498 18.263 20.5 17.288 20.5 15.892V8.108C20.5 6.711 20.498 5.738 20.398 5.002C20.301 4.289 20.123 3.91 19.851 3.642C19.578 3.372 19.195 3.196 18.471 3.1C17.727 3.002 16.741 3 15.326 3H14.341C12.926 3 11.939 3.002 11.195 3.1C10.472 3.196 10.089 3.372 9.816 3.641C9.543 3.911 9.366 4.289 9.268 5.003C9.168 5.737 9.167 6.711 9.167 8.108C9.167 8.511 8.836 8.838 8.427 8.838C8.33053 8.83866 8.23487 8.82029 8.1455 8.78395C8.05613 8.74761 7.9748 8.694 7.90616 8.6262C7.83753 8.5584 7.78293 8.47774 7.7455 8.38882C7.70806 8.2999 7.68852 8.20447 7.688 8.108V8.055C7.688 6.725 7.688 5.652 7.803 4.808L7.818 4.703C5.896 4.709 4.878 4.768 4.222 5.415C3.5 6.128 3.5 7.275 3.5 9.568ZM13.385 14.948L15.849 12.516C15.9176 12.4487 15.972 12.3684 16.0092 12.2798C16.0464 12.1912 16.0656 12.0961 16.0656 12C16.0656 11.9039 16.0464 11.8088 16.0092 11.7202C15.972 11.6316 15.9176 11.5513 15.849 11.484L13.385 9.052C13.2455 8.91513 13.0579 8.83846 12.8625 8.83846C12.6671 8.83846 12.4795 8.91513 12.34 9.052C12.2714 9.1193 12.217 9.1996 12.1798 9.2882C12.1426 9.37679 12.1234 9.47192 12.1234 9.568C12.1234 9.66408 12.1426 9.7592 12.1798 9.8478C12.217 9.9364 12.2714 10.0167 12.34 10.084L13.542 11.27H6.457C6.36044 11.2692 6.26468 11.2875 6.17519 11.3238C6.0857 11.36 6.00426 11.4136 5.93552 11.4814C5.86677 11.5493 5.81209 11.63 5.77459 11.7189C5.73709 11.8079 5.71752 11.9034 5.717 12C5.717 12.403 6.048 12.73 6.457 12.73H13.542L12.34 13.916C12.2714 13.9833 12.217 14.0636 12.1798 14.1522C12.1426 14.2408 12.1234 14.3359 12.1234 14.432C12.1234 14.5281 12.1426 14.6232 12.1798 14.7118C12.217 14.8004 12.2714 14.8807 12.34 14.948C12.4795 15.0849 12.6671 15.1615 12.8625 15.1615C13.0579 15.1615 13.2455 15.0849 13.385 14.948Z" fill="#1560BD"/>
</svg>
