<svg width="40" height="41" viewBox="0 0 40 41" fill="none" xmlns="http://www.w3.org/2000/svg">
<path d="M20.8763 0.360275C20.0637 0.652905 19.8085 1.63663 20.375 2.28104C20.5307 2.45848 20.7019 2.5581 20.9977 2.64527C21.337 2.74489 21.4179 2.84139 21.8071 3.61655C22.0935 4.18935 22.1277 4.27341 22.1277 4.42283C22.1277 4.54424 22.1028 4.63763 22.0405 4.76216C21.6607 5.50618 21.9347 6.36539 22.6694 6.73273C22.9153 6.85725 23.0679 7.00979 23.1114 7.18101C23.2889 7.86589 23.4259 8.49473 23.4259 8.63793C23.4259 8.80292 23.3543 8.94301 23.1581 9.16715C22.8593 9.50336 22.8531 9.50648 21.9067 9.47223C20.9416 9.43799 20.9447 9.4411 20.649 9.0364C20.4498 8.76557 20.263 8.60057 19.9548 8.42935C19.6497 8.25813 19.6092 8.17408 19.5003 7.48298C19.4505 7.15922 19.3882 6.7732 19.3602 6.62066C19.2979 6.28756 19.3135 6.19417 19.4754 5.94513C19.6528 5.67117 19.7244 5.46882 19.7431 5.19799C19.7742 4.76527 19.6404 4.40416 19.3415 4.09907C18.6597 3.41108 17.483 3.61655 17.069 4.50066C16.9911 4.66877 16.9693 4.75904 16.9569 4.99252C16.9258 5.59023 17.1841 6.05408 17.7103 6.34982C18.0309 6.53038 18.0714 6.63 18.2146 7.55769C18.2582 7.85344 18.2862 8.14295 18.2768 8.19899C18.2488 8.34219 18.1212 8.52586 17.9562 8.65349C17.8254 8.75623 17.6885 8.92122 17.455 9.25743C17.2962 9.48468 17.1935 9.51893 16.4464 9.57185C16.0977 9.59675 15.5716 9.64034 15.2758 9.66836C14.6128 9.73062 14.5661 9.71816 14.2236 9.39752C13.9559 9.15159 13.7504 9.04263 13.4142 8.97414C12.7387 8.83717 11.9791 9.17027 11.6771 9.74307C11.5775 9.93608 11.4312 10.1011 11.316 10.1633C11.2724 10.1851 11.0358 10.2412 10.7868 10.2879C10.5377 10.3314 10.0428 10.4342 9.68165 10.512C8.92206 10.677 8.81622 10.6832 8.63254 10.5711C8.15936 10.2879 7.85116 10.2069 7.47448 10.2692C7.01375 10.347 6.6215 10.6459 6.41915 11.0723C6.32576 11.2747 6.31953 11.3027 6.31953 11.6576C6.31953 12.0125 6.32576 12.0405 6.41915 12.2398C6.7647 12.9713 7.60212 13.264 8.32746 12.9122C8.56094 12.797 8.81933 12.5573 8.91895 12.3549C9.02479 12.1432 9.13064 12.0218 9.25516 11.9565C9.42638 11.8693 11.2382 11.4864 11.4686 11.4864C11.5993 11.4895 11.7923 11.5922 11.9822 11.7635C12.2997 12.053 12.6173 12.1713 13.0749 12.1713C13.6882 12.1713 14.1676 11.9129 14.4851 11.4148C14.6252 11.1938 14.7497 11.0692 14.8711 11.0225C15.0112 10.9696 16.5397 10.8326 16.9849 10.8326C17.2744 10.8326 17.4021 10.9011 17.6138 11.1689C17.8068 11.4117 17.9406 11.5331 18.171 11.6825C18.5446 11.9222 18.5695 12.0032 18.5695 12.8842C18.5695 13.2546 18.5539 13.6188 18.5352 13.6967C18.4916 13.8866 18.3858 14.0142 18.1212 14.1916C17.869 14.3629 17.6044 14.6368 17.5048 14.8298C17.2869 15.2563 17.181 15.3155 16.4526 15.4089C16.1693 15.4431 15.6089 15.524 15.2042 15.5832C14.2952 15.7202 14.3139 15.7233 13.9466 15.3808C13.5419 15.0073 13.1589 14.8485 12.6391 14.8485C11.8359 14.8485 11.2039 15.2781 10.8771 16.0439C10.7152 16.4237 10.6903 16.4362 9.75325 16.6759C9.32053 16.7848 8.69169 16.9529 8.35859 17.0463C7.64881 17.2487 7.5274 17.2549 7.28147 17.0993C7.03243 16.9405 6.85187 16.8938 6.52188 16.8938C5.90549 16.8938 5.48834 17.1677 5.19883 17.7623C5.09298 17.974 5.03072 18.0674 4.9529 18.1141C4.89686 18.1484 4.53886 18.304 4.15284 18.4566C3.37768 18.7647 2.91383 18.964 2.28188 19.2566C2.0484 19.3656 1.82115 19.4558 1.78068 19.4558C1.73709 19.4558 1.61257 19.4341 1.50361 19.406C0.915243 19.2535 0.351777 19.5088 0.0996183 20.0411C0.00933921 20.231 0 20.2777 0 20.5454C0 20.8007 0.0124523 20.8661 0.0840529 21.0186C0.554127 22.0304 1.97057 21.9245 2.31612 20.8474C2.38773 20.6295 2.61809 20.4987 3.86021 19.9695C4.74743 19.5928 5.28911 19.3936 5.43542 19.3936C5.5257 19.3936 5.65645 19.4372 5.84946 19.5243C6.11096 19.6457 6.15765 19.6582 6.44406 19.6675C6.70244 19.6769 6.78961 19.6675 6.9546 19.6115C7.3593 19.4776 7.60212 19.2566 7.81069 18.8426C7.96946 18.525 8.04417 18.4783 8.67924 18.2978C9.65986 18.0176 10.6498 17.7748 10.7961 17.7748C11.0016 17.7748 11.1199 17.8308 11.3534 18.0456C11.7301 18.385 12.0881 18.5219 12.6079 18.5219C13.1589 18.5219 13.573 18.3538 13.9466 17.9803C14.1178 17.809 14.1987 17.6907 14.3201 17.4479C14.5474 16.9934 14.5629 16.9841 15.3972 16.8564C15.7646 16.8004 16.3125 16.7226 16.6145 16.6821C17.3211 16.5918 17.3398 16.5949 17.6822 16.9467C17.8192 17.0837 17.9935 17.2518 18.0683 17.3172C18.2301 17.4635 18.2893 17.5942 18.2893 17.8153C18.2893 17.9771 18.1212 19.5461 18.0869 19.708C18.0745 19.7547 18.0278 19.8543 17.9811 19.929C17.9095 20.038 17.841 20.094 17.6324 20.203C17.2589 20.396 16.9476 20.7104 16.7452 21.1058C16.5211 21.5385 16.5211 21.5385 15.5436 21.7284C15.1015 21.8156 14.3948 21.9619 13.9715 22.0553C13.545 22.1487 13.1465 22.2265 13.0811 22.2265C12.9317 22.2265 12.7698 22.158 12.636 22.0428C12.1659 21.6288 11.4312 21.5478 10.821 21.8436C10.7308 21.8872 10.5564 22.0148 10.4381 22.1269C10.2545 22.3012 10.1984 22.3821 10.0677 22.6499C9.96494 22.8678 9.884 22.9954 9.81551 23.0483C9.75014 23.095 9.47619 23.1978 9.09017 23.3129C8.74773 23.4188 8.05974 23.6398 7.56165 23.8048L6.65886 24.1068L6.5032 24.0507C6.14831 23.9231 6.03936 23.9044 5.8121 23.92C5.3825 23.948 5.00893 24.1971 4.81903 24.5862C4.74121 24.745 4.73187 24.7948 4.73187 25.0905C4.73187 25.3894 4.74121 25.4329 4.82215 25.6042C4.94044 25.8408 5.14902 26.0524 5.38561 26.1645C5.55372 26.2455 5.60353 26.2548 5.8837 26.2579C6.16077 26.2579 6.2168 26.2486 6.38179 26.1707C6.60905 26.0649 6.84253 25.8439 6.94837 25.6353C7.04488 25.4423 7.12893 25.3489 7.26902 25.2773C7.39666 25.2119 8.76952 24.7574 9.526 24.5302C10.1175 24.3496 10.2264 24.3465 10.435 24.4897C10.5004 24.5364 10.6093 24.6111 10.6778 24.6578C10.9207 24.8228 11.1168 24.8788 11.4872 24.8975C11.7985 24.9099 11.8515 24.9037 12.0756 24.829C12.527 24.6765 12.8601 24.387 13.0469 23.9854C13.2305 23.5931 13.3177 23.5246 13.7909 23.4157C14.3108 23.2943 15.3817 23.0701 15.9701 22.9581C16.7203 22.8148 16.7577 22.8242 17.1125 23.1822C17.3585 23.4281 17.4488 23.5838 17.4488 23.7488C17.4488 23.9854 16.8635 26.7342 16.7763 26.8992C16.7016 27.0455 16.5958 27.1296 16.3156 27.2665C15.9265 27.4564 15.6525 27.7615 15.4875 28.188C15.4253 28.3468 15.4128 28.4339 15.4128 28.7484C15.4128 29.1842 15.4595 29.3461 15.6961 29.6916C15.8673 29.9407 15.9234 30.0652 15.9234 30.2053C15.9234 30.3734 15.1638 32.7736 15.0206 33.06C14.949 33.1969 14.896 33.2436 14.6532 33.3713C14.4135 33.4989 14.2641 33.6577 14.1396 33.9285C14.0524 34.1122 14.0431 34.1651 14.0431 34.4141C14.0431 34.6632 14.0524 34.7161 14.1396 34.9029C14.373 35.3979 14.8431 35.6469 15.4035 35.5753C16.1288 35.4788 16.5678 34.7192 16.3156 33.9908C16.272 33.8631 16.2347 33.7106 16.2347 33.6577C16.2347 33.6016 16.3716 33.1409 16.5429 32.6304C16.711 32.1229 16.9227 31.4567 17.0129 31.1548C17.2153 30.4792 17.2433 30.4356 17.6636 30.2364C17.9033 30.1243 18.0029 30.0527 18.1648 29.8877C18.4948 29.5515 18.6317 29.2091 18.6317 28.7141C18.6317 28.2689 18.5601 28.0822 18.1772 27.5436C18.0434 27.3537 18.0496 27.2728 18.2675 26.2579C18.3796 25.7442 18.529 25.0251 18.6006 24.6578C18.6722 24.2904 18.7469 23.9542 18.7718 23.9107C18.8403 23.7799 18.9742 23.6741 19.2543 23.5309C19.5999 23.3565 19.9081 23.0546 20.0762 22.7246C20.3221 22.2452 20.3221 22.2452 21.5767 22.1082C22.5666 21.9961 22.576 21.9961 22.7223 22.0521C22.8126 22.0864 22.9184 22.1611 22.9869 22.2389C23.0492 22.3074 23.2079 22.4724 23.3387 22.6C23.6033 22.8553 23.6749 22.9892 23.6749 23.2133C23.6749 23.369 23.4196 25.1963 23.3636 25.4547C23.3013 25.7225 23.2048 25.8252 22.8344 26.0026C22.6258 26.0991 22.52 26.177 22.3332 26.3638C21.9783 26.7186 21.8133 27.0798 21.7853 27.5841C21.7541 28.1226 21.9036 28.5678 22.2429 28.932C22.5978 29.3118 22.604 29.3492 22.383 30.2271C22.0997 31.3602 21.8755 32.1292 21.7884 32.2537C21.7323 32.3346 21.6234 32.4124 21.4304 32.5183C20.8576 32.8203 20.593 33.2872 20.6334 33.9223C20.6459 34.1433 20.6677 34.2211 20.7829 34.464C20.9728 34.8655 20.9696 34.8842 20.6148 35.7683C20.0731 37.1132 19.7431 37.8136 19.6061 37.907C19.5594 37.9413 19.4536 37.9911 19.3758 38.0191C19.052 38.1405 18.8279 38.346 18.6846 38.6542C18.6286 38.7787 18.6162 38.8565 18.6162 39.146C18.6162 39.4324 18.6286 39.5134 18.6846 39.6379C18.778 39.8402 19.0333 40.0986 19.245 40.2076C19.4131 40.2916 19.4505 40.2979 19.768 40.2979C20.0918 40.2979 20.1198 40.2916 20.2972 40.1982C20.8233 39.9212 21.0444 39.3764 20.8887 38.7444L20.8327 38.5234L20.9136 38.3366C20.9572 38.2339 21.1253 37.8541 21.2872 37.4961C21.4491 37.135 21.6888 36.5684 21.8195 36.2353C22.218 35.2235 22.1806 35.2796 22.5698 35.0959C23.1052 34.8438 23.4259 34.355 23.4259 33.7915C23.4259 33.5363 23.3605 33.3028 23.2079 33.0164C23.1395 32.8856 23.0834 32.7331 23.0834 32.6802C23.0834 32.6304 23.1737 32.263 23.2827 31.8645C23.3947 31.4692 23.5566 30.859 23.6438 30.5072C23.7309 30.1555 23.815 29.8317 23.8337 29.785C23.8866 29.6543 24.0734 29.5017 24.2819 29.4177C24.8703 29.1842 25.2812 28.7048 25.4213 28.0884C25.4618 27.8954 25.4618 27.4066 25.4151 27.2198C25.3466 26.9241 25.1847 26.6439 24.9264 26.3575C24.5995 26.0026 24.5933 25.9715 24.6898 25.3364C24.7302 25.0718 24.8112 24.5052 24.8703 24.0756C25.0073 23.0795 25.0229 23.0421 25.468 22.8055C25.7108 22.6748 25.9225 22.4724 26.1155 22.1891C26.3802 21.7969 26.4082 21.7813 27.0495 21.7502C27.7655 21.7159 28.1453 21.7346 28.3009 21.8156C28.4441 21.8903 28.5095 21.9588 28.6807 22.2171C28.7523 22.323 28.8893 22.4755 28.9889 22.5596C29.5088 22.9985 29.5119 23.0016 29.4496 23.8453C29.378 24.7854 29.3407 25.187 29.3064 25.3427C29.266 25.5263 29.1352 25.682 28.9298 25.8003C28.6153 25.9808 28.3445 26.3077 28.2169 26.6626C28.1359 26.893 28.1048 27.3444 28.1546 27.5841C28.2106 27.8456 28.3476 28.1071 28.5469 28.3312C28.7554 28.5616 28.8115 28.6768 28.8115 28.8698C28.8115 28.9912 28.5904 30.1617 28.4535 30.7438C28.3819 31.0614 28.2854 31.189 28.0021 31.3602C27.4635 31.6809 27.23 32.1043 27.2612 32.7082C27.2767 32.9635 27.2923 33.0288 27.3919 33.2281C27.6627 33.7791 28.2729 34.0966 28.8675 34.0001C29.5991 33.8787 30.1003 33.2499 30.0474 32.5183C30.0287 32.2443 29.9633 32.0482 29.8014 31.7898C29.7236 31.6684 29.6707 31.5408 29.6613 31.4598C29.6489 31.3727 29.6956 31.0832 29.8045 30.582C29.8917 30.1741 29.9975 29.6574 30.038 29.4332C30.1345 28.9383 30.1937 28.8386 30.5081 28.6643C31.1681 28.2939 31.4918 27.5529 31.3175 26.8089C31.2521 26.5287 31.1369 26.3264 30.9159 26.0898C30.5921 25.7474 30.5766 25.6851 30.6326 25.0967C30.6575 24.8633 30.698 24.3558 30.726 23.9698C30.754 23.5838 30.7914 23.2227 30.8069 23.1666C30.8536 23.0203 30.9688 22.8958 31.2054 22.7432C31.3206 22.6685 31.5043 22.5067 31.6163 22.3852C31.9681 21.9899 32.0491 21.9743 32.9768 22.13C33.7177 22.2545 33.7768 22.2856 33.9792 22.6312C34.4555 23.4468 35.5544 23.6118 36.2019 22.9643C37.0237 22.1424 36.5724 20.7509 35.4236 20.5703C35.0501 20.5143 34.745 20.5921 34.3247 20.8567C34.0788 21.0093 34.057 21.0093 33.3503 20.891C33.0546 20.8412 32.6904 20.7851 32.544 20.7633C32.13 20.7073 32.0553 20.6513 31.7689 20.1719C31.6599 19.9882 31.4451 19.7734 31.2116 19.6115C30.8848 19.3842 30.8723 19.3438 30.835 18.4223C30.8007 17.4759 30.8038 17.4635 31.1183 17.1709C31.2428 17.0557 31.3984 16.9467 31.4794 16.9156C31.6506 16.8502 31.7751 16.8658 32.6437 17.0775C33.3192 17.2393 33.397 17.2892 33.5682 17.6254C33.8484 18.1826 34.3123 18.4534 34.9504 18.4223C35.2026 18.4099 35.2711 18.3943 35.5015 18.2916C35.8813 18.1172 35.9529 18.1297 36.6315 18.469C37.4471 18.8768 37.581 18.9827 37.6526 19.2815C37.7429 19.6551 38.0013 19.982 38.3312 20.1345C38.4869 20.2092 38.5492 20.2185 38.82 20.2185C39.1095 20.2185 39.1469 20.2123 39.3399 20.1158C39.8099 19.8855 40.0683 19.3811 39.9843 18.8613C39.9096 18.3974 39.5951 18.0456 39.1344 17.9149C38.9881 17.8713 38.8885 17.8651 38.6363 17.8837C38.2783 17.9055 38.3873 17.9429 37.6059 17.5195C37.3662 17.3888 37.0175 17.2144 36.8276 17.1335C36.4914 16.9841 36.2206 16.7786 36.2206 16.6759C36.2206 16.651 36.1708 16.5327 36.1116 16.4144C35.7412 15.6704 34.7574 15.4026 34.0694 15.8603C33.8204 16.0252 33.7488 16.0252 33.0919 15.8634C32.7682 15.7855 32.3604 15.6921 32.1891 15.6579C31.7876 15.5738 31.6911 15.5085 31.5012 15.1941C31.3237 14.8952 31.1369 14.696 30.863 14.5216C30.5921 14.3442 30.5268 14.2352 30.4738 13.8585C30.4489 13.6936 30.3805 13.2297 30.3182 12.8281L30.203 12.1028L30.3089 12L30.4147 11.8973L30.835 12.0125C31.0653 12.0779 31.5198 12.2117 31.8467 12.3114C32.5222 12.523 32.6312 12.5884 32.79 12.8717C32.9332 13.127 33.0857 13.2764 33.3254 13.3947C33.5122 13.4881 33.5496 13.4943 33.8546 13.4943C34.1504 13.4943 34.1971 13.485 34.359 13.4072C35.0065 13.0896 35.2306 12.2647 34.8259 11.6732C34.5053 11.2031 33.9574 11.0412 33.3783 11.2467C33.2476 11.2934 33.1106 11.3307 33.0764 11.3307C33.0421 11.3307 32.7775 11.2529 32.488 11.1595C32.1985 11.0661 31.7315 10.926 31.4545 10.8451C31.1743 10.7673 30.9097 10.6832 30.863 10.6583C30.7603 10.6054 30.6357 10.4591 30.5517 10.2941C30.4521 10.1042 30.2217 9.87693 29.9882 9.73996C29.873 9.67147 29.7423 9.57185 29.6987 9.5127C29.6489 9.44733 29.5617 9.20762 29.4528 8.8216C29.3594 8.49784 29.2193 8.03399 29.1415 7.79429C29.0636 7.55147 28.9983 7.29931 28.9983 7.23394C28.9983 7.17167 29.0356 7.00979 29.0792 6.88216C29.1508 6.67981 29.1601 6.61132 29.1446 6.39029C29.1197 5.94824 28.908 5.62136 28.5251 5.41279C28.3507 5.3194 28.2978 5.30695 28.0332 5.2976C27.7001 5.28515 27.4915 5.34119 27.258 5.50929C26.9561 5.72721 26.7662 6.15059 26.7973 6.53038C26.8284 6.96621 27.0277 7.27752 27.4106 7.50166C27.5258 7.57014 27.6596 7.66665 27.7032 7.71957C27.7904 7.82542 28.027 8.52275 28.2667 9.38195L28.413 9.90806L28.3071 10.0077L28.2044 10.1104L27.8775 10.0513C27.697 10.0201 27.2425 9.95164 26.8658 9.89872C26.0471 9.78043 25.9848 9.75552 25.7793 9.43799C25.6112 9.17649 25.412 8.98348 25.1598 8.83405C24.7676 8.60057 24.7396 8.5601 24.6213 7.99352C24.5777 7.78183 24.4936 7.41449 24.4314 7.17479C24.2975 6.63623 24.3006 6.47435 24.4501 6.23153C24.945 5.43769 24.5715 4.3917 23.6936 4.10841C23.5753 4.07106 23.3013 3.83135 23.3013 3.76598C23.3013 3.70683 22.8468 2.78536 22.632 2.41179L22.4172 2.03822L22.4141 1.60239C22.4141 1.17279 22.411 1.16034 22.3145 0.961098C22.1931 0.715164 21.997 0.522156 21.751 0.410084C21.5238 0.307354 21.0911 0.282448 20.8763 0.360275ZM22.5916 10.8046C22.7441 10.8451 22.8717 10.9572 23.0212 11.1751C23.1612 11.3805 23.3325 11.5362 23.5908 11.6919C23.8617 11.86 23.9271 11.9907 23.9738 12.495C24.0609 13.4009 24.0236 13.5504 23.6282 13.8025C23.3916 13.9551 23.1737 14.1823 22.9713 14.4905C22.7005 14.9014 22.6818 14.9077 21.7915 14.9481C20.9012 14.9855 20.8233 14.9637 20.5774 14.6306C20.5151 14.5465 20.3533 14.3847 20.2194 14.2726C19.8365 13.9582 19.8458 13.9893 19.8458 12.9433C19.8458 11.888 19.8427 11.9004 20.2194 11.5953C20.347 11.4895 20.512 11.3276 20.5836 11.2342C20.9914 10.7112 20.9416 10.7299 21.8071 10.7548C22.1744 10.7642 22.5293 10.7859 22.5916 10.8046ZM26.7288 11.1751C27.7997 11.3307 27.8558 11.3494 28.0176 11.5767C28.2573 11.9098 28.3756 12.0374 28.5936 12.1837C28.9702 12.4421 28.9702 12.4359 29.1259 13.541C29.2504 14.4282 29.2504 14.4189 28.8955 14.7738C28.5562 15.11 28.5531 15.11 27.6908 15.0384C27.2394 15.001 26.9872 14.9668 26.9281 14.9326C26.8004 14.8672 26.6915 14.7427 26.5701 14.5247C26.4237 14.2664 26.0875 13.9208 25.8354 13.7745C25.3653 13.5005 25.3373 13.4445 25.2781 12.7067C25.2003 11.7603 25.2034 11.7417 25.5085 11.4304C25.7295 11.2062 25.8167 11.144 25.9568 11.1128C26.0097 11.0973 26.0595 11.0879 26.0657 11.0848C26.0689 11.0817 26.3677 11.1253 26.7288 11.1751ZM22.6258 16.2681C22.769 16.3397 22.8562 16.4299 22.9807 16.623C23.1301 16.8502 23.4321 17.1615 23.6251 17.2829C23.8741 17.4386 24.0142 17.5849 24.0609 17.7468C24.117 17.9273 24.0734 19.0543 24.008 19.2161C23.9489 19.3531 23.8057 19.4901 23.6002 19.6084C23.3605 19.7423 23.0865 20.0224 22.9309 20.287C22.7254 20.645 22.6133 20.7042 22.025 20.7633C21.8444 20.782 21.3868 20.8318 21.0039 20.8754C20.1447 20.975 20.1602 20.9813 19.7524 20.5766C19.4411 20.2652 19.3789 20.1687 19.3726 19.9788C19.3695 19.817 19.5532 18.1079 19.5999 17.8713C19.6404 17.6689 19.7742 17.5102 20.0233 17.3701C20.2723 17.23 20.5151 16.9903 20.705 16.6977C20.9416 16.3303 21.0257 16.2805 21.4491 16.2494C22.0219 16.2058 22.52 16.2151 22.6258 16.2681ZM27.918 16.3428C28.3103 16.3832 28.441 16.4517 28.6122 16.7195C28.7897 16.9965 28.936 17.1553 29.1321 17.2892C29.5057 17.5382 29.5306 17.6005 29.5524 18.4783C29.5679 19.1508 29.5648 19.1726 29.4963 19.3158C29.4496 19.4154 29.3749 19.4963 29.2815 19.5617C29.1228 19.6675 28.7492 20.0349 28.6185 20.2061C28.5718 20.2684 28.4753 20.3493 28.4005 20.3835C28.276 20.4427 28.2013 20.4489 27.3795 20.4551C26.4673 20.4614 26.3802 20.452 26.2463 20.3337C26.2152 20.3057 26.1124 20.1874 26.0222 20.0722C25.9288 19.9571 25.77 19.7983 25.6673 19.7205C25.4836 19.5804 25.4058 19.4714 25.356 19.294C25.3217 19.185 25.3778 17.9242 25.4213 17.7655C25.4618 17.6098 25.6019 17.4573 25.8042 17.3421C26.0377 17.2113 26.3272 16.9343 26.5109 16.6665C26.6354 16.4891 26.7039 16.4206 26.8284 16.3583C26.981 16.2805 27.0059 16.2774 27.3172 16.2961C27.4978 16.3085 27.7686 16.3272 27.918 16.3428Z" fill="#005CBF"/>
<path d="M16.5347 0.56327C16.2079 0.641097 15.8997 0.893255 15.744 1.20768C15.6662 1.36644 15.6569 1.41625 15.6569 1.71199C15.6569 2.02019 15.6631 2.05443 15.7565 2.24433C15.8779 2.49026 16.074 2.68016 16.3199 2.79534C16.4756 2.87006 16.5379 2.87939 16.8087 2.87939C17.0858 2.87939 17.1418 2.87006 17.3161 2.78912C17.5652 2.67393 17.8173 2.40932 17.9169 2.15716C18.0103 1.91746 18.0166 1.547 17.9294 1.31663C17.7271 0.759393 17.1107 0.426295 16.5347 0.56327Z" fill="#005CBF"/>
<path d="M25.1998 1.31587C24.7639 1.43728 24.4962 1.80774 24.5024 2.27159C24.5087 2.6327 24.6954 2.93156 25.0285 3.10589C25.1624 3.17749 25.2215 3.18994 25.4488 3.18994C25.6761 3.18994 25.7383 3.17749 25.8909 3.10278C26.4543 2.82571 26.5913 2.07546 26.1648 1.6085C25.9189 1.33766 25.5329 1.22248 25.1998 1.31587Z" fill="#005CBF"/>
<path d="M11.9774 2.20929C11.6692 2.27155 11.4513 2.44277 11.3112 2.72294C11.2178 2.91284 11.2147 2.93775 11.2272 3.19613C11.2365 3.39225 11.2583 3.50432 11.305 3.5946C11.3891 3.75648 11.6225 3.97129 11.7938 4.04289C11.8654 4.07713 11.9681 4.15184 12.0179 4.2141C12.1238 4.34174 12.4973 5.04218 12.4973 5.11378C12.4973 5.13869 12.4724 5.19161 12.4413 5.22897C12.3915 5.28811 12.3199 5.30368 11.744 5.36905C10.5952 5.50292 9.53679 5.67102 8.40052 5.90139C8.02072 5.9761 7.68451 6.03214 7.65338 6.01969C7.61914 6.01035 7.48216 5.94808 7.34519 5.8796C7.0152 5.7146 6.7288 5.68659 6.40815 5.7862C5.88827 5.94497 5.5863 6.36212 5.5863 6.91002C5.5863 7.76923 6.39881 8.3109 7.21755 7.9996C7.40122 7.928 7.64093 7.72253 7.82149 7.47349C7.86196 7.42057 7.93667 7.35519 7.98337 7.33029C8.21996 7.20888 10.1563 6.86333 11.6537 6.67654C12.3884 6.58626 12.4257 6.58938 12.7339 6.80107C13.0016 6.98474 13.2164 7.047 13.5402 7.02832C13.9916 7.00341 14.334 6.76993 14.5302 6.3559C14.6204 6.16911 14.6298 6.1193 14.6267 5.86714C14.6267 5.65546 14.608 5.54339 14.5551 5.40952C14.4679 5.18538 14.2562 4.94879 14.0289 4.82115C13.7643 4.67173 13.7208 4.62192 13.5215 4.23278C13.4219 4.03666 13.288 3.7845 13.2289 3.67554C13.1293 3.49499 13.1199 3.45452 13.1199 3.22104C13.1199 2.89105 13.0577 2.71672 12.8678 2.50814C12.6374 2.25598 12.3012 2.14391 11.9774 2.20929Z" fill="#005CBF"/>
<path d="M30.7348 4.11906C30.1028 4.29339 29.9907 5.14014 30.5511 5.49815C30.7752 5.63824 30.9713 5.99313 31.2079 6.678C31.2733 6.86479 31.3511 7.13874 31.3792 7.27882C31.4321 7.5341 31.4321 7.54032 31.3636 7.74267C31.1799 8.28123 31.3636 8.79178 31.8212 9.01592C32.0485 9.12488 32.3411 9.1311 32.6493 9.03148C32.8548 8.96611 32.8703 8.96611 33.1007 9.0128C33.7607 9.14667 34.7008 9.55759 34.8409 9.77239C35.0495 10.0899 35.3047 10.23 35.6129 10.1989C36.1017 10.1491 36.4068 9.70391 36.2698 9.23695C36.192 8.96611 35.9834 8.76687 35.7126 8.7015C35.6627 8.68905 35.5351 8.62678 35.4293 8.5583C34.9685 8.26567 34.1872 7.94813 33.5708 7.79559C33.1879 7.7022 33.1318 7.67418 32.8983 7.43137C32.7458 7.2726 32.696 7.19477 32.6617 7.06091C32.4781 6.3916 32.4345 6.23906 32.338 5.99001C32.2788 5.83747 32.1419 5.54173 32.036 5.33627C31.7341 4.76658 31.6842 4.66385 31.6251 4.51753C31.4975 4.2 31.0928 4.01944 30.7348 4.11906Z" fill="#005CBF"/>
<path d="M1.98366 12.6195C1.67235 12.7192 1.3735 12.9807 1.2552 13.2484C0.993704 13.8367 1.24275 14.5465 1.8031 14.8174C2.42572 15.1193 3.19465 14.8174 3.43746 14.173C3.4935 14.0266 3.50284 13.9426 3.4935 13.7122C3.48416 13.4694 3.4686 13.4009 3.38454 13.2266C3.18531 12.8219 2.83664 12.6009 2.37902 12.5853C2.21403 12.5791 2.0646 12.5915 1.98366 12.6195Z" fill="#005CBF"/>
<path d="M37.8068 13.9243C37.3741 14.0457 37.1095 14.3975 37.1095 14.8489C37.1095 15.2349 37.2901 15.5337 37.6356 15.7143C37.7664 15.7828 37.8317 15.7952 38.0559 15.7983C38.361 15.7983 38.5477 15.7267 38.7407 15.5337C38.9338 15.3407 39.0054 15.1539 39.0054 14.8489C39.0054 14.6372 38.9929 14.5562 38.9338 14.441C38.7314 14.0301 38.2333 13.8029 37.8068 13.9243Z" fill="#005CBF"/>
<path d="M38.141 22.3948C37.453 22.6843 37.1946 23.503 37.5962 24.1319C37.9978 24.7669 38.9286 24.8572 39.4392 24.3124C39.5201 24.2253 39.6228 24.0758 39.6695 23.9762C39.7442 23.8206 39.7536 23.7614 39.7536 23.4875C39.7536 23.198 39.7474 23.1606 39.654 22.9707C39.5326 22.7248 39.3364 22.5349 39.0905 22.4197C38.9442 22.3512 38.8601 22.3356 38.6173 22.3263C38.362 22.3201 38.2967 22.3294 38.141 22.3948Z" fill="#005CBF"/>
<path d="M34.0656 25.722C33.5955 25.8994 33.306 26.273 33.2718 26.7586C33.25 27.0481 33.334 27.3439 33.5115 27.5805C33.7232 27.8637 33.7232 27.8824 33.6111 28.7914C33.4555 30.0367 33.1192 31.9419 32.9947 32.275C32.9574 32.3746 32.8951 32.4431 32.7426 32.5583C32.3316 32.8696 32.1511 33.2867 32.2351 33.7475C32.3067 34.1397 32.5153 34.4261 32.8577 34.5973C33.4648 34.8993 34.1715 34.6658 34.4672 34.0619C34.545 33.9 34.5544 33.8533 34.5544 33.5576C34.5544 33.2338 34.5513 33.2245 34.4236 32.963C34.3458 32.8104 34.2898 32.6516 34.2898 32.5925C34.2898 32.5365 34.3458 32.2127 34.4143 31.8796C34.6291 30.7994 34.819 29.604 34.9435 28.4926C35.0026 27.9727 35.012 27.9353 35.0867 27.8669C35.1863 27.7797 35.205 27.7828 35.6595 28.0256C36.0985 28.2622 36.1701 28.3214 36.2821 28.5424C36.3911 28.7572 36.5592 28.9253 36.7646 29.0187C36.995 29.1245 37.3592 29.1183 37.574 29.0062C37.7608 28.9097 37.9289 28.7354 38.0286 28.5455C38.0877 28.4303 38.1002 28.3556 38.1002 28.1408C38.1002 27.9167 38.0877 27.8544 38.0192 27.7205C37.9196 27.5338 37.7484 27.3625 37.5585 27.266C37.4464 27.21 37.3561 27.1944 37.1102 27.1851L36.802 27.1758L36.472 26.9921C36.2915 26.8925 36.0455 26.7617 35.9241 26.6995C35.6782 26.5749 35.6128 26.5127 35.4883 26.2792C35.3824 26.08 35.1925 25.9025 34.9684 25.7873C34.8283 25.7126 34.7598 25.7002 34.4921 25.6908C34.2835 25.6846 34.1434 25.6939 34.0656 25.722Z" fill="#005CBF"/>
<path d="M2.00038 25.9157C1.80114 25.9811 1.53653 26.227 1.44625 26.4356C1.39644 26.5508 1.37776 26.6597 1.37465 26.8247C1.37154 27.3695 1.78246 27.7804 2.33348 27.7773C2.63233 27.7742 2.83157 27.687 3.03392 27.466C3.22693 27.2543 3.29853 27.0426 3.27674 26.7438C3.25183 26.4076 3.08061 26.1399 2.78176 25.978C2.57941 25.869 2.23386 25.841 2.00038 25.9157Z" fill="#005CBF"/>
<path d="M11.3458 27.2062C11.2524 27.2373 11.1279 27.2871 11.0687 27.3183C10.882 27.4148 10.6298 27.6825 10.4991 27.9191C10.4306 28.0436 10.3309 28.1775 10.2749 28.2211C10.222 28.2615 10.0041 28.358 9.78927 28.4327C8.37594 28.9402 7.1276 29.5348 5.77652 30.3473L5.23174 30.671L4.94845 30.6959C4.51573 30.7333 4.26357 30.889 4.10169 31.2189C4.02698 31.3684 4.01453 31.4369 4.01453 31.6454C4.01453 31.854 4.02698 31.9225 4.10169 32.0719C4.27914 32.4362 4.59044 32.6105 5.02005 32.5887C5.4372 32.57 5.67379 32.3957 5.87926 31.9661C6.00378 31.7046 6.04736 31.6735 6.89412 31.1878C7.87785 30.6243 9.05459 30.0764 10.0881 29.6998C10.6298 29.5036 10.7543 29.4819 10.7979 29.5908C10.8353 29.6904 10.3652 30.917 9.92936 31.8509C9.54023 32.6852 8.78064 34.0643 8.59385 34.2729C8.55961 34.3133 8.42886 34.3912 8.31056 34.4472C7.89341 34.6371 7.67861 34.9858 7.70974 35.4247C7.73776 35.792 7.93077 36.066 8.27321 36.2216C8.43197 36.2964 8.48801 36.3057 8.69347 36.2932C9.23514 36.2683 9.58069 35.9166 9.61494 35.3562C9.6305 35.0823 9.62428 35.1009 9.99785 34.4783C10.7855 33.1677 11.5233 31.5894 11.9373 30.3442C12.0245 30.0796 12.1365 29.9488 12.3825 29.8181C12.6502 29.678 12.8992 29.4196 13.0269 29.155C13.1203 28.962 13.1358 28.9028 13.1452 28.6195C13.1576 28.358 13.1483 28.2709 13.0922 28.1059C12.9397 27.6451 12.5506 27.2871 12.0929 27.1813C11.8813 27.1315 11.5388 27.1439 11.3458 27.2062Z" fill="#005CBF"/>
<path d="M26.2041 36.8413C25.6344 37.025 25.295 37.5822 25.3884 38.1706C25.4631 38.6282 25.7776 38.9831 26.2227 39.1138C26.6835 39.2477 27.2283 39.0703 27.5022 38.6936C27.6703 38.4601 27.7263 38.2515 27.7139 37.9184C27.7046 37.6538 27.6921 37.6009 27.5987 37.4266C27.387 37.0312 27.0477 36.8226 26.5994 36.8071C26.4344 36.8008 26.285 36.8133 26.2041 36.8413Z" fill="#005CBF"/>
<path d="M13.2041 37.0563C13.0048 37.1123 12.8149 37.2493 12.6935 37.4299C12.5597 37.626 12.5192 37.791 12.5348 38.0556C12.5597 38.4136 12.7371 38.6875 13.0515 38.8401C13.201 38.9148 13.2694 38.9272 13.478 38.9272C13.6866 38.9272 13.7551 38.9148 13.9045 38.8401C14.1224 38.7342 14.3123 38.5225 14.3808 38.3171C14.4555 38.0929 14.4337 37.7287 14.3341 37.5326C14.1349 37.1372 13.6461 36.9318 13.2041 37.0563Z" fill="#005CBF"/>
</svg>
